<svg width="24" height="24" viewBox="0 0 24 24" fill="none" xmlns="http://www.w3.org/2000/svg">
<path d="M11.6207 7.19675C10.7468 7.19675 9.89239 7.45592 9.16569 7.94149C8.43898 8.42705 7.87259 9.11721 7.53813 9.92467C7.20366 10.7321 7.11615 11.6207 7.28666 12.4779C7.45717 13.3351 7.87804 14.1224 8.49605 14.7405C9.11405 15.3585 9.90144 15.7793 10.7586 15.9498C11.6158 16.1203 12.5044 16.0328 13.3118 15.6984C14.1193 15.3639 14.8094 14.7975 15.295 14.0708C15.7806 13.3441 16.0398 12.4897 16.0398 11.6157C16.0407 11.0352 15.927 10.4601 15.7053 9.92358C15.4835 9.38703 15.158 8.89952 14.7475 8.48899C14.337 8.07846 13.8495 7.753 13.3129 7.53125C12.7764 7.3095 12.2013 7.19583 11.6207 7.19675ZM11.6207 14.4878C11.0525 14.4878 10.4971 14.3193 10.0246 14.0036C9.55213 13.6879 9.1839 13.2392 8.96644 12.7142C8.74899 12.1892 8.6921 11.6116 8.80295 11.0543C8.91381 10.4969 9.18744 9.98503 9.58923 9.58323C9.99103 9.18144 10.5029 8.90781 11.0603 8.79695C11.6176 8.6861 12.1952 8.74299 12.7202 8.96044C13.2452 9.17789 13.6939 9.54613 14.0096 10.0186C14.3253 10.4911 14.4937 11.0465 14.4937 11.6147C14.4924 12.3763 14.1893 13.1063 13.6508 13.6448C13.1123 14.1833 12.3823 14.4864 11.6207 14.4878ZM17.2507 7.01575C17.2507 7.21966 17.1903 7.419 17.077 7.58854C16.9637 7.75809 16.8027 7.89024 16.6143 7.96827C16.4259 8.0463 16.2186 8.06672 16.0186 8.02694C15.8186 7.98716 15.6349 7.88896 15.4907 7.74478C15.3465 7.60059 15.2483 7.41688 15.2086 7.21689C15.1688 7.01689 15.1892 6.80959 15.2672 6.6212C15.3453 6.43281 15.4774 6.27179 15.647 6.1585C15.8165 6.04522 16.0158 5.98475 16.2197 5.98475C16.3553 5.98435 16.4895 6.01075 16.6148 6.06242C16.74 6.1141 16.8538 6.19002 16.9497 6.28584C17.0455 6.38166 17.1214 6.49547 17.1731 6.62074C17.2247 6.746 17.2511 6.88025 17.2507 7.01575ZM20.1778 8.06075C20.2059 6.72129 19.7059 5.42454 18.7857 4.45075C17.8094 3.53421 16.5136 3.03542 15.1747 3.06075C13.7517 2.97975 9.48675 2.97975 8.06475 3.06075C6.72579 3.03349 5.42934 3.53133 4.45275 4.44775C3.53343 5.42327 3.03361 6.72058 3.06075 8.06075C2.97975 9.48375 2.97975 13.7487 3.06075 15.1707C3.03231 16.5106 3.53235 17.8077 4.45275 18.7817C5.4291 19.6985 6.7247 20.1979 8.06375 20.1737C9.48675 20.2547 13.7517 20.2547 15.1737 20.1737C16.5136 20.2022 17.8107 19.7022 18.7847 18.7817C19.702 17.8057 20.2015 16.5099 20.1768 15.1707C20.2578 13.7477 20.2578 9.48675 20.1768 8.06375L20.1778 8.06075ZM18.3397 16.6937C18.1942 17.0644 17.9741 17.4013 17.693 17.6834C17.4119 17.9655 17.0759 18.1868 16.7057 18.3337C15.5717 18.7837 12.8797 18.6798 11.6257 18.6798C10.3717 18.6798 7.67675 18.7797 6.54575 18.3337C6.17469 18.1877 5.83763 17.967 5.5555 17.6852C5.27337 17.4034 5.0522 17.0666 4.90575 16.6958C4.45575 15.5618 4.55975 12.8697 4.55975 11.6157C4.55975 10.3617 4.45975 7.66675 4.90575 6.53575C5.05164 6.16507 5.27214 5.82831 5.55356 5.54637C5.83499 5.26443 6.17134 5.04332 6.54175 4.89675C7.67575 4.44675 10.3677 4.55075 11.6217 4.55075C12.8757 4.55075 15.5707 4.45075 16.7017 4.89675C17.0724 5.04298 17.4091 5.26384 17.6909 5.54561C17.9727 5.82738 18.1935 6.16406 18.3397 6.53475C18.7897 7.66875 18.6858 10.3607 18.6858 11.6147C18.6858 12.8687 18.7897 15.5608 18.3397 16.6958V16.6937Z" fill="#272575"/>
</svg>
