<svg width="24" height="24" viewBox="0 0 24 24" fill="none" xmlns="http://www.w3.org/2000/svg">
<path d="M12.2128 3.015C13.1948 3 14.1698 3.007 15.1448 3C15.175 4.16986 15.6432 5.28577 16.4568 6.127C17.3369 6.91735 18.4565 7.38986 19.6368 7.469V10.492C18.5483 10.4658 17.4766 10.2184 16.4868 9.765C16.0647 9.56269 15.6585 9.32869 15.2718 9.065C15.2648 11.255 15.2788 13.445 15.2568 15.627C15.1997 16.6867 14.8493 17.7097 14.2448 18.582C13.7464 19.3025 13.0857 19.8958 12.3158 20.3139C11.5459 20.7321 10.6885 20.9633 9.81278 20.989C8.73908 21.0379 7.67476 20.7694 6.75278 20.217C5.99415 19.7662 5.35152 19.1442 4.87627 18.4007C4.40102 17.6572 4.10634 16.8128 4.01578 15.935C4.00078 15.56 3.99278 15.185 4.00878 14.818C4.08557 14.0492 4.31933 13.3044 4.69558 12.6296C5.07184 11.9548 5.58257 11.3645 6.19619 10.895C6.8098 10.4256 7.51323 10.0871 8.26294 9.90043C9.01265 9.7138 9.79269 9.68302 10.5548 9.81C10.5698 10.92 10.5248 12.03 10.5248 13.14C10.2047 13.0277 9.86566 12.9797 9.52702 12.9989C9.18839 13.0181 8.85689 13.104 8.55159 13.2518C8.2463 13.3996 7.97323 13.6062 7.7481 13.8599C7.52297 14.1136 7.35021 14.4093 7.23978 14.73C7.12101 15.1206 7.08391 15.5314 7.13078 15.937C7.2284 16.556 7.55025 17.1174 8.03505 17.5144C8.51984 17.9114 9.13371 18.1163 9.75978 18.09C10.1791 18.0776 10.5887 17.9607 10.9514 17.7499C11.3141 17.5391 11.6184 17.2412 11.8368 16.883C12.0038 16.6477 12.1093 16.3745 12.1438 16.088C12.2188 14.746 12.1888 13.411 12.1958 12.068C12.2028 9.046 12.1888 6.031 12.2108 3.016L12.2128 3.015Z" fill="#272575"/>
</svg>
