<svg width="24" height="24" viewBox="0 0 24 24" fill="none" xmlns="http://www.w3.org/2000/svg">
<path d="M11.5625 1C9.47344 1 7.43129 1.61948 5.69429 2.7801C3.9573 3.94072 2.60348 5.59036 1.80403 7.52041C1.00458 9.45045 0.795404 11.5742 1.20296 13.6231C1.61052 15.6721 2.6165 17.5541 4.09369 19.0313C5.57088 20.5085 7.45294 21.5145 9.50186 21.922C11.5508 22.3296 13.6746 22.1204 15.6046 21.321C17.5346 20.5215 19.1843 19.1677 20.3449 17.4307C21.5055 15.6937 22.125 13.6516 22.125 11.5625C22.122 8.76206 21.0083 6.07716 19.0281 4.09695C17.0478 2.11674 14.3629 1.00296 11.5625 1ZM11.5625 20.5C9.79483 20.5 8.06686 19.9758 6.5971 18.9938C5.12733 18.0117 3.98179 16.6158 3.30533 14.9827C2.62887 13.3496 2.45188 11.5526 2.79674 9.81888C3.14159 8.08517 3.99281 6.49266 5.24274 5.24273C6.49267 3.9928 8.08518 3.14159 9.81888 2.79673C11.5526 2.45188 13.3496 2.62887 14.9827 3.30533C16.6159 3.98178 18.0117 5.12733 18.9938 6.59709C19.9758 8.06685 20.5 9.79483 20.5 11.5625C20.4973 13.932 19.5548 16.2038 17.8793 17.8793C16.2038 19.5548 13.9321 20.4973 11.5625 20.5ZM14.7181 15.8017C14.6173 15.9921 14.445 16.1347 14.2391 16.1981C14.0332 16.2616 13.8106 16.2406 13.6202 16.1399C12.9876 15.7999 12.2807 15.6219 11.5625 15.6219C10.8444 15.6219 10.1374 15.7999 9.50485 16.1399C9.31493 16.2354 9.09515 16.2527 8.89266 16.188C8.69017 16.1233 8.52109 15.9818 8.42169 15.7939C8.32229 15.606 8.30049 15.3867 8.36096 15.1829C8.42143 14.9791 8.55936 14.8071 8.74516 14.7038C9.61327 14.2447 10.5804 14.0046 11.5625 14.0046C12.5446 14.0046 13.5117 14.2447 14.3798 14.7038C14.5703 14.8046 14.7128 14.9769 14.7763 15.1827C14.8397 15.3886 14.8187 15.6113 14.7181 15.8017ZM17.9681 10.1142C17.9178 10.2084 17.8495 10.2918 17.767 10.3596C17.6845 10.4273 17.5895 10.4782 17.4873 10.5092C17.3852 10.5403 17.2779 10.5509 17.1717 10.5404C17.0654 10.53 16.9623 10.4987 16.8681 10.4484C15.2366 9.57446 13.4144 9.11719 11.5635 9.11719C9.71266 9.11719 7.89047 9.57446 6.25891 10.4484C6.06874 10.5499 5.84602 10.5718 5.63975 10.5091C5.43347 10.4464 5.26054 10.3044 5.15899 10.1142C5.05744 9.92405 5.03559 9.70133 5.09826 9.49505C5.16092 9.28878 5.30296 9.11585 5.49313 9.0143C7.36044 8.01495 9.4456 7.49206 11.5635 7.49206C13.6814 7.49206 15.7666 8.01495 17.6339 9.0143C17.7283 9.06463 17.8118 9.1331 17.8796 9.21578C17.9475 9.29845 17.9984 9.39372 18.0293 9.4961C18.0603 9.59848 18.0707 9.70596 18.06 9.81238C18.0493 9.9188 18.0177 10.0221 17.967 10.1162L17.9681 10.1142ZM16.3431 12.958C16.2417 13.1481 16.0691 13.2902 15.863 13.3531C15.6569 13.4159 15.4343 13.3944 15.2441 13.2931C14.1114 12.6889 12.8473 12.3728 11.5635 12.3728C10.2797 12.3728 9.01563 12.6889 7.88289 13.2931C7.69314 13.39 7.4729 13.4085 7.26963 13.3446C7.06637 13.2807 6.89634 13.1395 6.79617 12.9515C6.69601 12.7634 6.67374 12.5435 6.73415 12.3392C6.79456 12.1349 6.93282 11.9624 7.11914 11.8591C8.48699 11.1296 10.0133 10.7481 11.5635 10.7481C13.1137 10.7481 14.64 11.1296 16.0079 11.8591C16.1022 11.9093 16.1857 11.9777 16.2536 12.0602C16.3214 12.1428 16.3724 12.2379 16.4034 12.3402C16.4344 12.4425 16.445 12.5499 16.4345 12.6562C16.4239 12.7626 16.3925 12.8658 16.342 12.96L16.3431 12.958Z" fill="#272575"/>
</svg>
