<svg width="24" height="24" viewBox="0 0 24 24" fill="none" xmlns="http://www.w3.org/2000/svg">
<path d="M11.5 4.63159C12.3194 4.63159 13.1598 4.65157 13.9744 4.68425L14.9366 4.72783L15.8575 4.77958L16.72 4.83496L17.5078 4.89307C18.3627 4.95505 19.1671 5.30066 19.7795 5.86909C20.392 6.43751 20.7732 7.19235 20.8562 8.00079L20.8945 8.38664L20.9664 9.21283C21.0335 10.069 21.0833 11.0023 21.0833 11.8948C21.0833 12.7872 21.0335 13.7205 20.9664 14.5767L20.8945 15.4029C20.8821 15.5354 20.8696 15.6634 20.8562 15.7887C20.7732 16.5973 20.3918 17.3522 19.7792 17.9207C19.1665 18.4891 18.3619 18.8347 17.5068 18.8964L16.721 18.9536L15.8585 19.0099L14.9366 19.0617L13.9744 19.1053C13.1501 19.1392 12.3251 19.1567 11.5 19.1579C10.6749 19.1567 9.8499 19.1392 9.02557 19.1053L8.06341 19.0617L7.14245 19.0099L6.27995 18.9536L5.4922 18.8964C4.63732 18.8344 3.83289 18.4888 3.22044 17.9204C2.60799 17.352 2.22675 16.5972 2.14378 15.7887L2.10545 15.4029L2.03357 14.5767C1.9603 13.6843 1.9213 12.7898 1.91666 11.8948C1.91666 11.0023 1.96649 10.069 2.03357 9.21283L2.10545 8.38664C2.11791 8.25409 2.13036 8.12608 2.14378 8.00079C2.22672 7.19249 2.60782 6.43777 3.22008 5.86936C3.83233 5.30096 4.63653 4.95526 5.49124 4.89307L6.27803 4.83496L7.14053 4.77958L8.06245 4.72783L9.02461 4.68425C9.84926 4.65032 10.6746 4.63277 11.5 4.63159ZM11.5 6.44738C10.7094 6.44738 9.89574 6.46736 9.10416 6.49822L8.16691 6.54089L7.26703 6.59083L6.42178 6.6453L5.64745 6.7025C5.24047 6.72986 4.85687 6.89284 4.56462 7.16255C4.27238 7.43227 4.09037 7.7913 4.05087 8.17601C3.93874 9.27366 3.83332 10.64 3.83332 11.8948C3.83332 13.1495 3.93874 14.5158 4.05087 15.6135C4.13232 16.4052 4.79549 17.0207 5.64745 17.087L6.42178 17.1433L7.26703 17.1978L8.16691 17.2486L9.10416 17.2913C9.89574 17.3221 10.7094 17.3421 11.5 17.3421C12.2906 17.3421 13.1042 17.3221 13.8958 17.2913L14.8331 17.2486L15.7329 17.1987L16.5782 17.1442L17.3525 17.087C17.7595 17.0596 18.1431 16.8967 18.4354 16.6269C18.7276 16.3572 18.9096 15.9982 18.9491 15.6135C19.0612 14.5158 19.1667 13.1495 19.1667 11.8948C19.1667 10.64 19.0612 9.27366 18.9491 8.17601C18.9096 7.7913 18.7276 7.43227 18.4354 7.16255C18.1431 6.89284 17.7595 6.72986 17.3525 6.7025L16.5782 6.64621L15.7329 6.59174L14.8331 6.54089L13.8958 6.49822C13.0977 6.46569 12.2989 6.44874 11.5 6.44738ZM9.58332 9.69311C9.58326 9.60437 9.60608 9.51697 9.6498 9.43849C9.69352 9.36001 9.75681 9.29284 9.83417 9.24282C9.91153 9.1928 10.0006 9.16144 10.0937 9.15146C10.1868 9.14149 10.281 9.1532 10.3682 9.18559L10.4458 9.22191L14.4708 11.4226C14.551 11.4665 14.6188 11.5279 14.6685 11.6019C14.7182 11.6758 14.7483 11.7601 14.7563 11.8474C14.7643 11.9347 14.7499 12.0226 14.7144 12.1036C14.6789 12.1845 14.6233 12.2562 14.5523 12.3124L14.4708 12.3669L10.4458 14.5685C10.3647 14.613 10.2733 14.638 10.1797 14.6414C10.086 14.6448 9.99291 14.6265 9.90845 14.588C9.82398 14.5495 9.75072 14.492 9.69506 14.4206C9.6394 14.3492 9.60301 14.2659 9.58907 14.1781L9.58332 14.0964V9.69311Z" fill="black"/>
</svg>
