<svg width="206" height="32" viewBox="0 0 206 32" fill="none" xmlns="http://www.w3.org/2000/svg">
<g clip-path="url(#clip0_502_455)">
<path d="M11.544 9.695V20.834C13.0226 20.0031 14.1229 18.633 14.615 17.01L14.736 17.071C14.405 21.045 11.695 25.019 7.481 25.019C3.235 25.018 0.104004 21.86 0.104004 16.799C0.104004 13.006 2.573 10.627 5.734 8.49C5.27215 8.36872 4.79651 8.30788 4.319 8.309C3.89592 8.27018 3.46937 8.31732 3.06497 8.44759C2.66058 8.57785 2.28671 8.78855 1.96583 9.06702C1.64496 9.34548 1.38371 9.68596 1.1978 10.068C1.01189 10.45 0.905148 10.8657 0.884004 11.29H0.706004C0.680933 11.0803 0.670907 10.8691 0.676004 10.658C0.676004 7.979 2.091 4.727 5.523 4.727C7.723 4.727 9.407 6.744 11.966 6.744C12.5354 6.76419 13.0991 6.62514 13.5937 6.34248C14.0884 6.05983 14.4943 5.64477 14.766 5.144H14.856C14.826 7.101 14.224 9.118 11.545 9.691L11.544 9.695ZM13.17 21.105C11.664 22.7 10.039 24.06 7.932 24.06C4.018 24.06 1.008 20.989 1.008 16.533C1.008 13.914 2.092 12.499 3.296 10.843H3.175C2.33702 11.5788 1.66084 12.4805 1.18921 13.4911C0.717576 14.5017 0.460763 15.5991 0.435004 16.714C0.435004 21.652 3.535 24.692 7.6 24.692C8.76959 24.6544 9.90797 24.3054 10.8977 23.681C11.8873 23.0566 12.6925 22.1794 13.23 21.14L13.169 21.11L13.17 21.105ZM14.37 6.505C14.0165 7.19784 13.4707 7.77396 12.7978 8.1642C12.125 8.55444 11.3539 8.74222 10.577 8.705C8.377 8.705 6.362 7.2 4.586 7.2C3.93769 7.20667 3.30291 7.38629 2.74722 7.7203C2.19153 8.05431 1.73508 8.53061 1.425 9.1L1.455 9.161C1.82686 8.78312 2.27296 8.48638 2.7652 8.28949C3.25744 8.0926 3.78513 7.99982 4.315 8.017C6.663 8.017 8.168 9.462 10.547 9.462C11.4397 9.5358 12.3285 9.27919 13.0445 8.7409C13.7605 8.2026 14.2539 7.4201 14.431 6.542L14.37 6.512V6.505ZM6.004 8.581C5.05407 9.4251 4.29843 10.4651 3.78915 11.6294C3.27987 12.7936 3.02906 14.0545 3.054 15.325C3.01815 16.2563 3.18231 17.1844 3.53541 18.0469C3.88852 18.9094 4.42237 19.6862 5.101 20.325L5.974 19.873V11.802L5.161 12.223L5.011 11.923L9.226 9.635C8.084 9.393 7.058 8.882 6.004 8.581ZM11.213 9.755C10.9933 9.78054 10.7721 9.79056 10.551 9.785C10.1477 9.79088 9.74503 9.75028 9.351 9.664V18.455L5.402 20.593C6.29097 21.2449 7.371 21.5835 8.473 21.556C9.41658 21.562 10.3506 21.367 11.213 20.984V9.755ZM6.878 11.29L6.306 11.621V19.69L6.878 19.39V11.29ZM24.184 12.434V22.851C24.184 25.741 21.625 27.698 18.765 28.27L18.705 28.149C19.3789 27.8177 19.9456 27.3028 20.3398 26.6636C20.7339 26.0244 20.9396 25.2869 20.933 24.536V13.76L19.307 12.285L18.675 12.977V21.377L19.575 22.19V22.251L17.144 24.898L14.344 22.339V22.218L15.428 21.074V7.768L18.619 4.368L18.679 4.398V12.46L21.298 9.63L24.038 12.099L24.55 11.557L24.791 11.768L24.191 12.43L24.184 12.434ZM15.755 22.279V22.219L16.387 21.586V7.26L15.755 7.923V21.285L14.791 22.249V22.309L17.139 24.416L17.56 23.934L15.754 22.278L15.755 22.279ZM21.896 13.279L19.944 11.591L19.523 12.043L21.269 13.609V24.447C21.2938 25.1059 21.1489 25.7602 20.848 26.347L20.878 26.377C21.2386 26.0932 21.5216 25.7227 21.7004 25.3001C21.8793 24.8775 21.9483 24.4165 21.901 23.96V13.277L21.896 13.279ZM28.971 18.488V20.023L31.891 22.311L33.584 20.502L33.825 20.743L29.911 24.927L25.937 21.736L25.337 22.368L25.096 22.127L25.789 21.405V13.789L31.479 9.634L34.46 14.451L28.971 18.488ZM26.743 21.138V13.488L26.111 13.94V21.44L29.844 24.481L30.326 23.969L26.743 21.139V21.138ZM29.036 11.86L28.975 11.89V18.06L31.654 16.103L29.036 11.86ZM29.819 11.26L29.277 11.651L31.927 15.896L32.469 15.505L29.819 11.26ZM54.084 24.898L49.894 21.285L46.703 24.898L42.368 21.16V15.26H41.525C41.2166 15.2559 40.9163 15.3585 40.6749 15.5504C40.4334 15.7423 40.2657 16.0117 40.2 16.313H40.11C40.014 15.9391 39.9637 15.555 39.96 15.169C39.96 14.386 40.171 12.339 42.369 12.339V7.166C42.369 6.173 41.195 5.781 41.195 4.456C41.195 2.741 42.821 1.056 45.801 0L45.922 0.09C45.4201 0.291025 44.992 0.641429 44.6958 1.09377C44.3996 1.54612 44.2496 2.07856 44.266 2.619C44.266 4.606 46.193 4.094 46.193 7.225V8.425L49.716 4.725L53.416 8.368L56.908 4.725L60.284 8.038V19.178L54.084 24.898ZM43.331 20.683V14.331H41.645C41.3266 14.3039 41.0101 14.402 40.7627 14.6044C40.5154 14.8067 40.3566 15.0975 40.32 15.415L40.35 15.445C40.5081 15.2609 40.7086 15.1181 40.9342 15.0289C41.1598 14.9397 41.4038 14.9068 41.645 14.933H42.698V21.014L46.672 24.446L47.124 23.904L43.331 20.683ZM43.331 6.864C43.331 5.63 42.247 5.208 42.247 4.426C42.2682 3.3853 42.6515 2.38455 43.331 1.596L43.271 1.566C42.79 1.89553 42.3853 2.32437 42.0841 2.8236C41.7829 3.32283 41.5922 3.88084 41.525 4.46C41.525 5.544 42.699 6.06 42.699 7.019V12.348H43.331V6.86V6.864ZM49.684 9.875L47.396 7.647L46.196 8.881V19.539L48.936 21.857L49.689 21.014V9.875H49.684ZM50.647 20.623V9.454L48.084 6.925L47.602 7.407L50.011 9.725V20.954L54.084 24.476L54.566 24.024L50.647 20.623ZM56.484 9.484L54.584 7.677L53.507 8.791V19.509L56.457 22.098L56.487 22.068V9.484H56.484ZM57.451 9.06L55.251 6.922L54.799 7.404L56.816 9.331V21.918L57.448 21.318L57.451 9.06ZM70.243 24.898L67.384 22.309L64.824 24.898L61.693 22.128L61.271 22.58L61.03 22.339L61.572 21.767V13.699L67.232 9.604L70.484 12.133L71.056 11.533L71.297 11.774L70.635 12.466V20.806L72.235 22.281L72.747 21.739L72.988 21.95L70.248 24.9L70.243 24.898ZM62.536 21.56V13.428L61.904 13.88V21.86L64.794 24.449L65.276 23.967L62.536 21.56ZM67.384 13.638L64.914 11.712L64.824 11.773V20.533L66.871 22.309L67.383 21.797L67.384 13.638ZM68.348 21.827V13.187L65.784 11.109L65.184 11.53L67.713 13.517V22.127L70.242 24.415L70.694 23.933L68.346 21.826L68.348 21.827ZM79.004 15.083H82.104V21.526L77.317 24.898C76.992 24.5117 76.5868 24.2008 76.1295 23.987C75.6722 23.7732 75.1738 23.6616 74.669 23.66C73.6952 23.6842 72.7686 24.0849 72.084 24.778L71.934 24.717L76.024 18.76H73.495V13.16L78.523 9.66C79.0144 10.1391 79.6727 10.4087 80.359 10.412C81.1258 10.4375 81.8788 10.2043 82.497 9.75L82.618 9.81L79.004 15.083ZM75.632 22.79C74.8509 22.794 74.0915 23.0469 73.464 23.512V23.573C74.1279 23.2905 74.8641 23.2254 75.5672 23.3871C76.2704 23.5487 76.9042 23.9289 77.378 24.473L78.071 23.961C77.785 23.5877 77.4153 23.2868 76.9916 23.0827C76.5679 22.8786 76.1022 22.777 75.632 22.786V22.79ZM78.853 17.732H77.167L73.644 22.82L73.674 22.88C74.447 22.2377 75.4098 21.8677 76.414 21.827C76.875 21.8286 77.33 21.9319 77.7464 22.1297C78.1628 22.3275 78.5304 22.6147 78.823 22.971L78.853 22.941V17.732ZM74.453 17.732V12.886L73.821 13.338V18.396H76.264L76.746 17.734H74.458L74.453 17.732ZM80.745 11.832C80.1801 12.3228 79.4449 12.5717 78.698 12.525C78.339 12.514 77.9859 12.4311 77.6595 12.2811C77.3331 12.1312 77.0402 11.9172 76.798 11.652L76.738 11.682V16.082H77.882L80.784 11.86L80.745 11.832ZM79.305 11.56C78.9764 11.5509 78.654 11.4677 78.3621 11.3165C78.0701 11.1653 77.8161 10.9501 77.619 10.687L76.866 11.199C77.084 11.5141 77.3771 11.7698 77.7188 11.9432C78.0605 12.1166 78.44 12.2021 78.823 12.192C79.6146 12.1808 80.3748 11.881 80.961 11.349L80.991 11.259C80.4527 11.4636 79.8809 11.5657 79.305 11.56ZM79.817 16.739H77.86L77.408 17.371H79.184V23.211L79.816 22.759V16.74L79.817 16.739ZM92.491 12.434V22.851C92.491 25.741 89.932 27.698 87.072 28.27L87.012 28.149C87.6859 27.8177 88.2526 27.3028 88.6468 26.6636C89.0409 26.0244 89.2466 25.2869 89.24 24.536V13.76L87.614 12.284L86.982 12.976V21.376L87.882 22.189V22.25L85.444 24.899L82.644 22.34V22.219L83.728 21.075V7.768L86.919 4.368L86.979 4.398V12.46L89.598 9.63L92.338 12.099L92.85 11.557L93.091 11.768L92.491 12.43V12.434ZM84.062 22.279V22.219L84.694 21.586V7.26L84.062 7.922V21.285L83.098 22.249V22.309L85.446 24.416L85.867 23.934L84.062 22.279ZM90.203 13.279L88.246 11.593L87.825 12.045L89.571 13.611V24.447C89.5958 25.1059 89.4509 25.7602 89.15 26.347L89.18 26.377C89.5408 26.0933 89.8239 25.7229 90.003 25.3003C90.1821 24.8776 90.2512 24.4166 90.204 23.96V13.277L90.203 13.279ZM97.97 24.9L95.384 22.519L94.784 23.151L94.543 22.91L95.236 22.158V13.46L93.972 12.26L93.49 12.802L93.249 12.561L95.958 9.611L98.367 11.779L98.967 11.117L99.238 11.328L98.485 12.141V20.932L99.93 22.287L100.592 21.594L100.833 21.835L97.973 24.905L97.97 24.9ZM96.194 21.95V12.976L94.628 11.531L94.207 12.013L95.562 13.308V22.249L97.971 24.416L98.423 23.934L96.194 21.95ZM97.094 9.366L94.629 7.106L96.884 4.697L99.356 6.96L97.094 9.366ZM95.559 6.626L95.107 7.078L97.064 8.914L97.516 8.402L95.559 6.626ZM110.698 24.9L108.084 22.519V13.729L106.484 12.284L105.641 13.184V21.312L106.574 22.185V22.306L104.105 24.895L101.305 22.336V22.246L102.389 21.102V13.518L100.974 12.223L100.402 12.855L100.161 12.614L102.901 9.633L105.641 12.072V12.672L108.501 9.631L111.18 12.04L111.78 11.408L112.051 11.649L111.329 12.402V21.012L112.684 22.276L113.346 21.554L113.587 21.795L110.698 24.895V24.9ZM102.75 22.281V22.221C102.965 22.0362 103.165 21.8356 103.35 21.621V13.071L101.634 11.505L101.212 11.957L102.717 13.342V21.29L101.784 22.254V22.314L104.102 24.421L104.583 23.909L102.747 22.284L102.75 22.281ZM109.042 22.04V13.217L107.176 11.531L106.694 12.043L108.41 13.578V22.339L110.668 24.446L111.15 23.934L109.043 22.034L109.042 22.04ZM119.188 30.319C118.195 29.235 117.502 28.784 116.569 28.784C115.399 28.8558 114.263 29.2069 113.257 29.808L113.167 29.718L117.322 24.901L114.372 22.553L113.8 23.153L113.559 22.942L114.221 22.22V13.7L119.941 9.605L123.132 12.134L123.674 11.534L123.915 11.775L123.284 12.46V22.76C123.284 24.326 124.157 24.265 124.157 25.439C124.157 26.794 122.2 28.058 119.19 30.316L119.188 30.319ZM115.188 21.98V13.46L114.556 13.912V22.251L117.536 24.66L117.988 24.118L115.188 21.98ZM117.295 28.001C116.314 28.0037 115.357 28.3085 114.555 28.874V28.935C115.235 28.6216 115.974 28.4572 116.722 28.453C117.218 28.4878 117.7 28.6329 118.132 28.8777C118.565 29.1225 118.937 29.4609 119.222 29.868L119.822 29.386C119.523 28.9888 119.143 28.6598 118.707 28.421C118.271 28.1822 117.789 28.039 117.293 28.001H117.295ZM120.968 25.111C120.216 24.629 120.035 24.118 120.035 22.823V22.281L115.035 28.061L115.065 28.091C116.025 27.4417 117.158 27.0958 118.317 27.098C119.426 27.1239 120.483 27.5766 121.267 28.362C121.552 28.1726 121.788 27.9182 121.955 27.6199C122.122 27.3216 122.217 26.9878 122.23 26.646C122.231 26.042 121.719 25.59 120.967 25.109L120.968 25.111ZM120.035 13.641L117.535 11.684L117.474 11.744V20.986L119.401 22.491L120.033 21.769L120.035 13.641ZM121.871 24.69C121.088 24.09 120.998 23.576 120.998 22.281V13.127L118.469 11.08L117.897 11.471L120.366 13.428V22.7C120.366 23.995 120.427 24.356 121.239 24.9C121.961 25.382 122.533 25.893 122.533 26.586C122.533 26.766 122.503 27.067 122.503 27.067L122.533 27.097C122.639 26.9964 122.723 26.8749 122.78 26.7401C122.837 26.6054 122.866 26.4603 122.864 26.314C122.848 25.9816 122.748 25.6587 122.575 25.3747C122.401 25.0908 122.159 24.856 121.871 24.69ZM129.097 24.9L126.327 22.733L125.755 23.365L125.514 23.124L126.176 22.402V11.86H124.43L124.37 11.8L125.424 10.234H126.176V8.219L129.368 4.819L129.428 4.88V10.238H131.837L131.898 10.299L130.841 11.86H129.426V20.982L131.082 22.247L131.714 21.554L131.955 21.795L129.097 24.9ZM127.14 7.71L126.508 8.403V10.239H127.14V7.71ZM127.14 22.101V11.86H126.508V22.46L129.067 24.447L129.519 23.965L127.141 22.098L127.14 22.101ZM141.801 12.738V21.16L136.713 24.923L132.889 22.033L132.437 22.545L132.196 22.304L132.738 21.704V13.46L138.067 9.636L141.619 12.406L142.191 11.806L142.432 12.047L141.8 12.74L141.801 12.738ZM133.701 21.409V13.187L133.068 13.639V21.739L136.681 24.509L137.253 24.088L133.701 21.409ZM138.548 13.732L136.019 11.745L135.989 11.775V20.746L138.548 22.673V13.729V13.732ZM139.512 13.19L136.712 11.022L136.14 11.443L138.88 13.55V22.913L139.512 22.432V13.187V13.19ZM153.3 24.901L150.684 22.519V13.729L149.084 12.284L148.241 13.184V21.312L149.174 22.185V22.306L146.705 24.895L143.905 22.336V22.246L144.989 21.102V13.518L143.574 12.223L143.002 12.855L142.761 12.614L145.501 9.633L148.241 12.072V12.672L151.101 9.631L153.78 12.04L154.38 11.408L154.651 11.649L153.929 12.402V21.012L155.284 22.278L155.946 21.556L156.187 21.797L153.3 24.901ZM145.351 22.282V22.222C145.566 22.0372 145.766 21.8366 145.951 21.622V13.072L144.235 11.506L143.814 11.958L145.319 13.343V21.291L144.386 22.255V22.315L146.704 24.422L147.186 23.91L145.349 22.285L145.351 22.282ZM151.643 22.041V13.217L149.777 11.531L149.295 12.043L151.011 13.578V22.339L153.269 24.446L153.751 23.934L151.643 22.041ZM171.898 24.901C171.38 24.174 170.624 23.6519 169.76 23.426V29.326L169.7 29.356L168.5 28.272L165.004 31.49L164.943 31.46V23.36C163.702 23.6563 162.573 24.3042 161.691 25.226L161.631 25.196C161.641 24.1692 161.963 23.1698 162.555 22.3303C163.146 21.4909 163.979 20.8511 164.942 20.496V14.632H164.31C163.92 14.6329 163.539 14.755 163.221 14.9814C162.903 15.2078 162.663 15.5274 162.534 15.896H162.444C162.323 15.4451 162.272 14.9783 162.293 14.512C162.284 14.1796 162.341 13.8487 162.46 13.5383C162.58 13.228 162.759 12.9443 162.989 12.7036C163.218 12.463 163.493 12.2701 163.797 12.1362C164.102 12.0022 164.43 11.9297 164.762 11.923H164.942V8.671L163.709 7.56L163.109 8.16L162.898 7.949L165.939 4.728L168.769 7.317V10.06L169.431 9.338V5.871H169.762V9.032L173.762 4.727L177.162 7.827V20.927L171.898 24.901ZM164.944 22.252C164.378 22.3645 163.845 22.6011 163.381 22.9447C162.918 23.2882 162.537 23.7303 162.265 24.239L162.295 24.3C163.051 23.6458 163.964 23.1995 164.944 23.005V22.252ZM165.908 13.612H164.252C164.038 13.5913 163.823 13.617 163.62 13.6875C163.418 13.758 163.233 13.8716 163.078 14.0204C162.924 14.1693 162.803 14.3498 162.725 14.5496C162.647 14.7495 162.613 14.9638 162.626 15.178L162.656 15.208C162.793 14.9417 163 14.7175 163.255 14.5591C163.509 14.4007 163.801 14.3139 164.101 14.308H165.275V30.709L165.907 30.109V13.609L165.908 13.612ZM165.908 8.193L164.403 6.809L163.921 7.321L165.276 8.521V11.921H165.908V8.193ZM169.431 9.909L168.769 10.602V28.029L169.431 28.629V9.905V9.909ZM173.375 9.217L171.599 7.591L169.763 9.578V20.178C170.438 20.197 171.103 20.3507 171.718 20.6299C172.334 20.9091 172.887 21.3082 173.346 21.804L173.376 21.774L173.375 9.217ZM169.762 22.253V23.036C170.637 23.1977 171.414 23.6942 171.929 24.42L172.622 23.878C172.293 23.4146 171.866 23.0289 171.372 22.7479C170.878 22.467 170.329 22.2978 169.762 22.252V22.253ZM174.338 8.736L172.291 6.836L171.809 7.348L173.709 9.094V23.094L174.341 22.612V8.732L174.338 8.736ZM187.675 12.736V21.16L182.584 24.928L178.761 22.038L178.309 22.55L178.068 22.309L178.61 21.709V13.46L183.939 9.636L187.491 12.406L188.063 11.806L188.304 12.047L187.672 12.74L187.675 12.736ZM179.575 21.407V13.187L178.942 13.639V21.739L182.555 24.509L183.127 24.088L179.575 21.409V21.407ZM184.422 13.73L181.893 11.743L181.863 11.773V20.744L184.422 22.671V13.729V13.73ZM185.386 13.188L182.586 11.02L182.014 11.441L184.754 13.548V22.911L185.386 22.43V13.187V13.188ZM194.658 15.088H197.758V21.531L192.971 24.903C192.647 24.5159 192.242 24.2041 191.785 23.9894C191.327 23.7747 190.829 23.6623 190.324 23.66C189.349 23.6822 188.421 24.0816 187.735 24.774L187.585 24.713L191.679 18.752H189.15V13.16L194.178 9.668C194.669 10.147 195.328 10.4166 196.014 10.42C196.781 10.4454 197.534 10.2122 198.152 9.758L198.273 9.818L194.66 15.087L194.658 15.088ZM191.284 22.79C190.503 22.794 189.744 23.047 189.117 23.512V23.573C189.781 23.2903 190.517 23.2251 191.22 23.3868C191.923 23.5485 192.557 23.9288 193.031 24.473L193.724 23.961C193.438 23.5879 193.068 23.2874 192.644 23.084C192.22 22.8805 191.754 22.7798 191.284 22.79ZM194.506 17.732H192.82L189.298 22.82L189.328 22.88C190.101 22.2376 191.064 21.8676 192.068 21.827C192.529 21.8286 192.984 21.9319 193.4 22.1297C193.817 22.3275 194.184 22.6147 194.477 22.971L194.507 22.941V17.733L194.506 17.732ZM190.106 17.732V12.886L189.473 13.338V18.396H191.911L192.393 17.734H190.105L190.106 17.732ZM196.398 11.832C195.833 12.3229 195.097 12.5719 194.35 12.525C193.991 12.514 193.638 12.4311 193.311 12.2811C192.985 12.1312 192.692 11.9172 192.45 11.652L192.389 11.682V16.082H193.533L196.423 11.867L196.394 11.837L196.398 11.832ZM194.953 11.561C194.624 11.552 194.302 11.4689 194.01 11.3177C193.718 11.1665 193.464 10.9512 193.267 10.688L192.514 11.2C192.732 11.515 193.025 11.7707 193.367 11.9441C193.709 12.1175 194.088 12.203 194.471 12.193C195.263 12.1818 196.023 11.882 196.609 11.35L196.639 11.26C196.103 11.4633 195.533 11.565 194.96 11.56L194.953 11.561ZM195.465 16.74H193.508L193.056 17.372H194.832V23.212L195.464 22.76V16.74H195.465ZM202.751 24.898L199.984 22.73L199.412 23.362L199.171 23.121L199.833 22.399V11.86H198.087L198.027 11.8L199.08 10.234H199.832V8.219L203.024 4.819L203.085 4.88V10.238H205.493L205.554 10.299L204.503 11.86H203.084V20.982L204.74 22.247L205.372 21.554L205.613 21.795L202.751 24.898ZM200.794 7.708L200.162 8.401V10.237H200.794V7.708ZM200.794 22.099V11.86H200.162V22.46L202.721 24.447L203.173 23.965L200.795 22.098L200.794 22.099Z" fill="#272575"/>
</g>
<defs>
<clipPath id="clip0_502_455">
<rect width="205.513" height="31.49" fill="white" transform="translate(0.104004)"/>
</clipPath>
</defs>
</svg>
