<svg width="70" height="54" viewBox="0 0 70 54" fill="none" xmlns="http://www.w3.org/2000/svg">
<g clip-path="url(#clip0_502_480)">
<path d="M35.0022 12.4963C28.8767 12.4989 22.9982 14.9788 18.637 19.4002C14.2758 23.8216 11.7823 29.8293 11.6953 36.125H20.6407C20.7108 32.2565 22.2543 28.5705 24.9397 25.859C27.625 23.1476 31.2379 21.627 35.0022 21.6239C38.7672 21.6258 42.3811 23.1459 45.0674 25.8575C47.7536 28.5691 49.2978 32.2557 49.3679 36.125H58.3045C58.2175 29.8301 55.7246 23.8231 51.3644 19.4019C47.0042 14.9806 41.1269 12.5001 35.0022 12.4963Z" fill="#272575"/>
<path d="M35.0022 0.489998C25.7789 0.492797 16.9296 4.23771 10.3779 10.9106C3.82626 17.5835 0.101921 26.645 0.0145569 36.125H9.12816C9.21525 29.129 11.9791 22.4496 16.8216 17.5327C21.664 12.6157 28.1954 9.85662 35.0022 9.85269C41.8098 9.85525 48.3425 12.6137 53.1861 17.5308C58.0296 22.448 60.7942 29.1281 60.8813 36.125H69.9852C69.8978 26.6458 66.1741 17.5851 59.6234 10.9123C53.0728 4.23951 44.2246 0.494048 35.0022 0.489998Z" fill="#272575"/>
<path d="M35.0022 24.3613C31.9441 24.3641 29.0083 25.5963 26.8223 27.7945C24.6363 29.9926 23.3734 32.9825 23.3034 36.125H46.7051C46.6351 32.9817 45.3716 29.9913 43.1847 27.793C40.9978 25.5947 38.061 24.363 35.0022 24.3613Z" fill="#272575"/>
<path d="M0 39.2994V42.5586H3.78741V53.2109H7.48505V42.5586H11.2725V39.2994H0Z" fill="#272575"/>
<path d="M47.7809 39.2987L42.5955 53.1597H46.6738L47.3203 51.2463H52.6988L53.3452 53.1597H57.4236L52.2382 39.2987C50.7524 39.2987 49.2666 39.2987 47.7809 39.2987ZM50.0095 43.2863L51.6241 48.0653H48.395L50.0095 43.2863Z" fill="#272575"/>
<path d="M55.9199 39.2989L61.198 47.6325V53.1597H64.7477V47.6325L70 39.2989H65.9501L62.978 44.3512L60.0057 39.2989L55.9199 39.2989Z" fill="#272575"/>
<path d="M29.0777 39.3318V53.175H35.1845C44.1846 53.3139 45.3393 39.4827 35.1845 39.3318H29.0777ZM32.7575 42.5397H35.414C39.9373 42.5397 39.3905 50.0035 35.414 50.0035H32.7575V42.5397Z" fill="#272575"/>
<path d="M19.5421 39.1102C14.8008 39.1102 12.1916 42.307 12.1916 46.2504C12.1916 50.1939 15.0876 53.49 19.6138 53.49C24.104 53.49 26.8926 50.1939 26.8926 46.2504C26.8926 42.307 24.104 39.1102 19.5421 39.1102ZM19.5929 42.3639C21.8747 42.3639 23.2695 44.114 23.2695 46.2728C23.2695 48.4317 21.8747 50.2363 19.6288 50.2363C17.3649 50.2363 15.9164 48.4317 15.9164 46.2728C15.9164 44.114 17.2213 42.3639 19.5929 42.3639Z" fill="#272575"/>
</g>
<defs>
<clipPath id="clip0_502_480">
<rect width="70" height="53" fill="white" transform="translate(0 0.489998)"/>
</clipPath>
</defs>
</svg>
