<svg width="98" height="32" viewBox="0 0 98 32" fill="none" xmlns="http://www.w3.org/2000/svg">
<g clip-path="url(#clip0_502_507)">
<path d="M12.45 8.349H12.042C11.892 5.749 11.742 2.734 9.104 1.395C7.92515 0.962527 6.66046 0.816179 5.414 0.967998L5.424 15.507C5.96559 15.5216 6.5015 15.3935 6.97801 15.1357C7.45452 14.8779 7.85489 14.4993 8.139 14.038C8.80129 12.7549 9.09745 11.3143 8.995 9.874H9.44V21.586H8.891C8.891 19.466 8.925 17.386 6.852 16.199C6.37746 16.0621 5.88684 15.9888 5.393 15.981V31.066C7.993 31.166 9.254 31.066 10.408 29.617C11.1027 28.7898 11.5872 27.8069 11.82 26.752C12.0971 25.672 12.2223 24.5586 12.192 23.444H12.638V31.55H0.33V31.104H2.114V0.911998L0 0.920998V0.428998H12.451V8.349" fill="#272575"/>
<path d="M64.277 1.056H62.377L62.363 31.043C64.092 31.053 65.212 31.178 66.291 30.361C68.447 28.612 68.891 25.973 68.931 23.261H69.34V31.551H56.831V31.06H59.142L59.154 30.994V1.033H57.12V0.470998H64.28V1.056" fill="#272575"/>
<path d="M96.965 8.385H96.52C96.446 5.596 96.11 2.361 93.136 1.32C92.0937 1.04111 91.0096 0.953031 89.936 1.06L89.922 15.449C91.322 15.461 92.163 15.18 92.722 13.962C93.2965 12.6779 93.5636 11.2774 93.502 9.872H93.948V21.66H93.502C93.465 19.539 93.355 16.974 91.16 16.119C90.7482 16.0062 90.3217 15.956 89.895 15.97V31.07C92.275 31.15 94.284 30.662 95.51 28.654C96.3136 27.0524 96.71 25.2773 96.664 23.486H97.072V31.517L84.811 31.527V31.07H86.865V1.051L84.728 1.061V0.437998H96.966V8.386" fill="#272575"/>
<path d="M36.652 1.01H34.674L34.662 31.128C36.204 31.128 37.585 31.216 38.588 30.287C40.298 28.911 40.707 26.866 40.967 24.82L41.043 23.295H41.489V31.549H29.258V31.127H31.391L31.405 1.01H29.374V0.464998H36.657V1.01" fill="#272575"/>
<path d="M95.842 31.413C96.0636 31.4102 96.2794 31.3421 96.4623 31.217C96.6452 31.092 96.7871 30.9157 96.8701 30.7102C96.9531 30.5048 96.9736 30.2794 96.9289 30.0624C96.8842 29.8453 96.7764 29.6464 96.6189 29.4904C96.4615 29.3345 96.2615 29.2286 96.044 29.186C95.8266 29.1435 95.6014 29.1661 95.3968 29.2511C95.1921 29.3361 95.0172 29.4797 94.894 29.6638C94.7707 29.848 94.7046 30.0644 94.704 30.286C94.7035 30.4351 94.7326 30.5828 94.7897 30.7205C94.8469 30.8582 94.9309 30.9831 95.0368 31.088C95.1427 31.1929 95.2685 31.2757 95.4067 31.3315C95.545 31.3873 95.6929 31.415 95.842 31.413ZM94.93 30.286C94.9345 30.1067 94.9918 29.9327 95.0948 29.7857C95.1977 29.6388 95.3417 29.5255 95.5086 29.46C95.6756 29.3945 95.8582 29.3797 96.0336 29.4174C96.209 29.4552 96.3693 29.5438 96.4946 29.6722C96.6198 29.8006 96.7044 29.9631 96.7378 30.1394C96.7712 30.3156 96.7518 30.4978 96.6822 30.6631C96.6125 30.8284 96.4956 30.9695 96.3462 31.0688C96.1968 31.168 96.0214 31.2209 95.842 31.221C95.7203 31.2215 95.5997 31.1974 95.4875 31.1504C95.3753 31.1033 95.2736 31.0341 95.1886 30.947C95.1037 30.8599 95.037 30.7566 94.9928 30.6432C94.9485 30.5298 94.9275 30.4087 94.931 30.287L94.93 30.286ZM95.604 30.373H95.83L96.173 30.937H96.394L96.028 30.368C96.0738 30.3667 96.119 30.3564 96.1608 30.3375C96.2026 30.3187 96.2402 30.2918 96.2716 30.2583C96.3029 30.2248 96.3273 30.1855 96.3433 30.1425C96.3594 30.0995 96.3667 30.0538 96.365 30.008C96.365 29.752 96.208 29.642 95.906 29.642H95.416V30.942H95.608L95.604 30.373ZM95.604 30.205V29.805H95.877C96.01 29.805 96.155 29.835 96.155 29.997C96.155 30.197 96.01 30.206 95.841 30.206L95.604 30.205Z" fill="#272575"/>
</g>
<defs>
<clipPath id="clip0_502_507">
<rect width="97.078" height="31.122" fill="white" transform="translate(0 0.428998)"/>
</clipPath>
</defs>
</svg>
