<svg width="192" height="26" viewBox="0 0 192 26" fill="none" xmlns="http://www.w3.org/2000/svg">
<g clip-path="url(#clip0_502_453)">
<path d="M14.325 2.7845C14.325 0.703501 12.353 0.184502 10.8 0.184502V0.495502C11.734 0.495502 12.461 0.806502 12.461 1.5335C12.4538 1.68583 12.415 1.83499 12.347 1.97152C12.2791 2.10804 12.1835 2.22895 12.0663 2.32655C11.9491 2.42416 11.813 2.49634 11.6664 2.53851C11.5198 2.58068 11.3661 2.59191 11.215 2.5715C10.0415 2.44632 8.88965 2.16726 7.789 1.7415C6.64019 1.22508 5.41144 0.909178 4.156 0.807502C3.70493 0.789732 3.25484 0.861964 2.83199 1.01998C2.40913 1.178 2.02198 1.41865 1.69311 1.72788C1.36424 2.0371 1.10024 2.40873 0.91651 2.82106C0.732783 3.2334 0.633006 3.6782 0.623 4.1295C0.616487 4.62391 0.76246 5.10833 1.04105 5.51682C1.31965 5.92532 1.71734 6.23807 2.18 6.4125L2.28 6.2045C2.11564 6.0867 1.98248 5.9306 1.89204 5.74973C1.80161 5.56886 1.75663 5.36867 1.761 5.1665C1.80427 4.82259 1.98167 4.50971 2.25457 4.296C2.52746 4.08229 2.87375 3.98507 3.218 4.0255C4.53326 4.16986 5.82431 4.4838 7.059 4.9595C8.31934 5.32171 9.60255 5.599 10.9 5.7895V9.0075L9.342 10.3575V10.4575L10.9 11.8105V16.2745C10.1099 16.7245 9.20821 16.9406 8.3 16.8975C7.54443 16.9371 6.78948 16.8087 6.08951 16.5215C5.38954 16.2343 4.76197 15.7954 4.252 15.2365L8.508 13.1605V5.9975L3.322 8.2845C3.81169 7.00248 4.77958 5.96039 6.022 5.3775L5.922 5.0665C4.28733 5.4835 2.8297 6.41422 1.76363 7.7217C0.697553 9.02918 0.079349 10.6444 0 12.3295C0.00554064 14.2549 0.772843 16.0998 2.13428 17.4612C3.49572 18.8227 5.34064 19.59 7.266 19.5955C8.16052 19.6085 9.04871 19.4436 9.87898 19.1104C10.7092 18.7772 11.465 18.2824 12.1024 17.6547C12.7398 17.027 13.2462 16.2788 13.592 15.4538C13.9378 14.6287 14.1163 13.7431 14.117 12.8485H13.91C13.3634 14.1739 12.4203 15.2979 11.21 16.0665V11.8105L12.871 10.4615V10.3615L11.211 9.0075V5.7895C11.616 5.80963 12.0209 5.74652 12.4006 5.60405C12.7803 5.46158 13.1268 5.24279 13.4186 4.96118C13.7104 4.67957 13.9414 4.34113 14.0973 3.96675C14.2532 3.59237 14.3307 3.19 14.325 2.7845ZM5.294 14.1985L4.048 14.8215C3.22712 13.6759 2.82402 12.2834 2.906 10.8765C2.86708 10.1435 2.93718 9.40887 3.114 8.6965L5.294 7.7625V14.1985ZM16.294 16.5855L14.945 17.6235L15.153 17.8315L15.776 17.3125L18.062 19.3845L21.176 17.3085L21.076 17.1005L20.246 17.6195L19.2 16.5845V9.5265L20.03 8.9035L21.8 10.3575V16.6845C21.8 20.6295 20.97 21.2515 19.2 21.8745V22.1855C22.107 22.2855 24.805 21.3555 24.805 16.2685V9.4235L25.739 8.6965L25.536 8.4845L24.706 9.1075L22.106 6.9275L19.2 9.1115V0.599502H19L15.363 3.0915V3.2995C15.6903 3.39705 15.9731 3.60602 16.1625 3.89021C16.3519 4.17439 16.4359 4.51588 16.4 4.8555L16.3 16.5845L16.294 16.5855ZM35.294 15.4435L32.694 17.4155L30.094 15.3395V14.0945L34.973 10.7725V10.6725L32.491 6.9315L27.091 9.8385V16.6845L26.053 17.5145L26.261 17.7225L27.195 16.9955L30.724 19.5955L35.4 15.8585L35.3 15.4435H35.294ZM30.1 13.6795V8.5925L30.308 8.4925L32.592 12.1255L30.1 13.6795ZM55.12 1.8455C55.1006 1.52512 55.0303 1.20986 54.912 0.911502H54.7C54.6103 1.2987 54.3814 1.63945 54.057 1.86899C53.7325 2.09852 53.335 2.20084 52.94 2.1565C52.5649 2.1439 52.1964 2.05451 51.8572 1.89386C51.518 1.73322 51.2154 1.50472 50.968 1.2225L47.958 4.6485L48.166 4.8565L49.2 3.9215C49.9023 4.5869 50.8326 4.9583 51.8 4.9595V13.5755L45.674 3.0915C45.4431 2.55021 45.0704 2.08129 44.5952 1.7342C44.12 1.38712 43.5599 1.17475 42.974 1.1195C41.313 1.1195 39.86 2.5725 40.067 4.8565H40.378C40.478 4.2335 40.793 3.5075 41.52 3.5075C42.039 3.5075 42.558 4.0265 42.869 4.5455V7.9695C41.001 7.9695 39.755 8.7995 39.755 10.3565C39.7284 10.8822 39.877 11.4018 40.1777 11.8338C40.4783 12.2658 40.9139 12.5858 41.416 12.7435V12.5355C41.3146 12.4441 41.2342 12.3317 41.1805 12.2062C41.1268 12.0807 41.1011 11.945 41.105 11.8085C41.105 11.2895 41.52 10.8745 42.247 10.8745H42.766V15.2345C40.586 15.2345 38.821 16.4805 38.821 18.5565C38.821 20.5285 40.482 21.4635 42.35 21.3565V21.1485C41.208 21.0485 40.689 20.5255 40.689 19.7995C40.6775 19.6103 40.7081 19.4208 40.7786 19.2448C40.8491 19.0688 40.9578 18.9106 41.0967 18.7816C41.2356 18.6526 41.4015 18.556 41.5822 18.4988C41.7629 18.4415 41.9541 18.425 42.142 18.4505C42.5502 18.4789 42.9473 18.5957 43.3058 18.7929C43.6642 18.9901 43.9755 19.2629 44.218 19.5925L47.228 16.2705L47.02 16.0625L46.293 16.8925C45.4759 16.0161 44.3704 15.4634 43.179 15.3355V4.9595L51.479 19.4925H52.102V4.9595C52.9046 4.91763 53.6615 4.57301 54.2201 3.99513C54.7787 3.41725 55.0974 2.64908 55.112 1.8455H55.12ZM62.698 15.4455L60.098 17.4175L57.498 15.3415V14.0945L62.377 10.7725V10.6725L59.9 6.9315L54.5 9.8385V16.6845L53.462 17.5145L53.67 17.7225L54.604 16.9955L58.133 19.5955L62.8 15.8585L62.7 15.4435L62.698 15.4455ZM57.508 13.6805V8.5925L57.716 8.4925L60 12.1215L57.509 13.6785L57.508 13.6805ZM79.618 8.0755L78.891 8.5945L76.919 6.9315L74.635 9.0075L75.569 9.9415V17.7265L73.078 16.1695V9.7345L73.908 9.2155L71.521 6.9315L69.237 9.0075L70.171 9.9415V17.4155L69.86 17.6235L67.68 16.0665V9.8385C67.7006 9.32818 67.5618 8.8241 67.2828 8.39632C67.0037 7.96854 66.5984 7.6383 66.123 7.4515C65.396 6.9325 64.981 6.6215 64.981 5.8945C64.981 5.2715 65.604 4.9605 65.915 4.7525V4.5445C65.085 4.5445 62.905 5.3745 62.905 7.3445C62.9123 7.73136 63.01 8.11115 63.1902 8.45355C63.3705 8.79594 63.6282 9.09146 63.943 9.3165C64.2462 9.52892 64.4972 9.80744 64.677 10.131C64.8568 10.4546 64.9608 10.8149 64.981 11.1845V17.2055L63.839 18.0355L64.047 18.2435L65.085 17.4135L67.472 19.4895L70.072 17.7245L72.979 19.4895L78.479 16.2715V9.3195L79.826 8.2845L79.618 8.0755ZM98.925 2.3645L97.887 3.2985L95.6 1.2225L92.178 3.7135V1.4305H91.867L91.967 18.2465C91.3002 18.1673 90.6419 18.0284 90 17.8315L89.791 3.8175C89.7943 3.48014 89.7285 3.14567 89.5976 2.83472C89.4667 2.52377 89.2735 2.24293 89.0299 2.00953C88.7863 1.77613 88.4974 1.59511 88.1812 1.47764C87.8649 1.36016 87.5279 1.30873 87.191 1.3265C86.393 1.30058 85.6172 1.59195 85.0336 2.1368C84.4499 2.68165 84.1059 3.43558 84.077 4.2335H84.388C84.488 3.6105 84.803 3.0915 85.426 3.0915C86.049 3.0915 86.568 3.5065 86.568 4.8565V8.9045C84.7 9.0045 83.558 10.0465 83.558 11.3955C83.558 12.2255 83.973 13.4715 85.219 13.4715V13.2635C85.0717 13.2051 84.9444 13.1055 84.8523 12.9765C84.7602 12.8476 84.7073 12.6948 84.7 12.5365C84.7 11.9135 85.219 11.7065 86.049 11.7065H86.464V18.1425C85.8257 18.3096 85.2628 18.6879 84.867 19.2158C84.4711 19.7436 84.2656 20.39 84.284 21.0495C84.284 22.8145 85.633 24.0595 87.71 24.0595C89.0416 24.0539 90.3672 23.8795 91.655 23.5405C92.6457 23.3009 93.6513 23.1275 94.665 23.0215C95.495 23.0215 95.807 23.4365 95.807 23.9555C95.807 24.6825 95.496 24.9935 95.08 25.0975V25.3055C95.8131 25.2492 96.4981 24.9187 96.9985 24.38C97.4988 23.8412 97.7779 23.1338 97.78 22.3985C97.78 20.8415 96.223 19.9075 94.562 19.9075C93.2726 20.0054 91.9901 20.1787 90.721 20.4265C89.6271 20.6766 88.5171 20.85 87.399 20.9455C86.672 20.9455 85.842 20.6345 85.842 19.5965C85.842 18.7665 86.569 18.0395 88.333 18.0395C89.4192 18.0368 90.501 18.1763 91.551 18.4545C92.665 18.7944 93.8147 19.0034 94.977 19.0775C96.534 19.0775 97.884 18.5585 97.884 16.3775V3.6105L99.13 2.5725L98.922 2.3645H98.925ZM94.67 8.6965C94.5138 8.87754 94.3232 9.02582 94.1094 9.13275C93.8955 9.23969 93.6626 9.30316 93.424 9.3195C93.183 9.31502 92.9461 9.25675 92.7305 9.14897C92.5149 9.04118 92.3262 8.88659 92.178 8.6965V4.1295L93.216 3.4025L94.67 4.7515V8.6965ZM94.67 11.8105C94.5069 11.6461 94.3129 11.5155 94.0992 11.4264C93.8854 11.3374 93.6561 11.2915 93.4245 11.2915C93.1929 11.2915 92.9636 11.3374 92.7498 11.4264C92.5361 11.5155 92.3421 11.6461 92.179 11.8105V9.1105C92.3421 9.27495 92.5361 9.40548 92.7498 9.49456C92.9636 9.58363 93.1929 9.62949 93.4245 9.62949C93.6561 9.62949 93.8854 9.58363 94.0992 9.49456C94.3129 9.40548 94.5069 9.27495 94.67 9.1105V11.8105ZM94.67 16.6895C94.6823 16.9109 94.6478 17.1323 94.5686 17.3394C94.4895 17.5465 94.3676 17.7346 94.2108 17.8913C94.0541 18.0481 93.866 18.17 93.6589 18.2491C93.4518 18.3283 93.2304 18.3628 93.009 18.3505H92.179V12.2255C92.5209 11.9121 92.9618 11.7285 93.425 11.7065C93.8832 11.7497 94.3176 11.9306 94.671 12.2255V16.6845L94.67 16.6895ZM108.891 9.3195L105.569 6.9325L100.483 9.8395V16.5845L99.445 17.4145L99.545 17.6225L100.375 16.9995L103.697 19.4905L108.887 16.3765V9.3195H108.891ZM103.286 15.8595V8.3845L105.886 10.2525V17.6225L103.286 15.8575V15.8595ZM118.753 7.1395H118.545C118.278 7.36211 117.955 7.50584 117.611 7.5545C117.394 7.55642 117.18 7.51096 116.983 7.42132C116.785 7.33167 116.61 7.19999 116.469 7.0355H116.261L114.5 9.0075L112.735 7.0355L109.621 9.1115L109.721 9.3195L110.551 8.8005L111.589 9.9425V16.4845L110.24 17.5225L110.448 17.7305L111.071 17.2115L113.562 19.2875L116.78 17.1075L116.68 16.8995L115.746 17.4185L114.5 16.3775V9.1115C114.964 9.68677 115.634 10.059 116.368 10.1495C117.821 10.2495 118.652 8.8005 118.756 7.1395H118.753ZM131.21 17.1045L127.681 19.4915L122.9 12.2255L126.326 6.9315H126.534C126.991 7.42793 127.625 7.72581 128.299 7.7615C128.606 7.75576 128.906 7.67757 129.177 7.53332C129.448 7.38907 129.68 7.18285 129.856 6.9315H130.064C129.964 9.0075 128.507 10.2535 127.464 10.2535C126.673 10.1891 125.917 9.90124 125.284 9.4235L124.973 9.9425L130.163 17.6245L131.201 17.0015L131.21 17.1045ZM119.79 16.5845L118.441 17.6225L118.649 17.8305L119.272 17.3115L121.556 19.3875L124.67 17.3115L124.462 17.1035L123.632 17.6225L122.593 16.5845V0.599502H122.493L118.756 3.0905V3.2985C119.093 3.37996 119.387 3.58544 119.58 3.87399C119.772 4.16255 119.848 4.513 119.794 4.8555V16.5845H119.79ZM148.44 2.7845C148.44 0.708502 146.468 0.184502 144.911 0.184502V0.495502C145.845 0.495502 146.572 0.806502 146.572 1.5335C146.565 1.68583 146.526 1.83499 146.458 1.97152C146.39 2.10804 146.294 2.22895 146.177 2.32655C146.06 2.42416 145.924 2.49634 145.777 2.53851C145.631 2.58068 145.477 2.59191 145.326 2.5715C144.153 2.44632 143.001 2.16726 141.9 1.7415C140.732 1.30161 139.51 1.02239 138.267 0.911502C137.816 0.894276 137.367 0.966912 136.944 1.12518C136.522 1.28344 136.135 1.52417 135.807 1.83335C135.478 2.14252 135.215 2.51396 135.031 2.92603C134.848 3.33809 134.748 3.78255 134.738 4.2335C134.732 4.72851 134.879 5.21335 135.158 5.62192C135.438 6.03049 135.836 6.34288 136.3 6.5165L136.4 6.3085C136.206 6.21601 136.043 6.06818 135.932 5.88353C135.821 5.69888 135.767 5.48563 135.777 5.2705C135.82 4.92719 135.997 4.61471 136.269 4.4009C136.541 4.18709 136.886 4.08921 137.23 4.1285C138.545 4.27286 139.836 4.5868 141.071 5.0625C142.331 5.42471 143.615 5.702 144.912 5.8925V9.1115L143.355 10.4605V10.5605L144.912 11.9095V16.3735C144.122 16.8235 143.22 17.0396 142.312 16.9965C141.556 17.0361 140.801 16.9077 140.102 16.6205C139.402 16.3333 138.774 15.8944 138.264 15.3355L142.52 13.2595V5.9975L137.333 8.2845C137.914 7.03538 138.854 5.98755 140.033 5.2745L139.933 5.0665C136.819 5.8965 134.016 8.6995 134.016 12.2285C134.022 14.1539 134.789 15.9988 136.15 17.3602C137.512 18.7217 139.357 19.489 141.282 19.4945C142.177 19.5075 143.065 19.3426 143.895 19.0094C144.725 18.6762 145.481 18.1814 146.118 17.5537C146.756 16.926 147.262 16.1778 147.608 15.3528C147.954 14.5277 148.132 13.6421 148.133 12.7475H147.925C147.378 14.0729 146.435 15.1969 145.225 15.9655V11.7065L146.886 10.3575V10.2575L145.326 8.9045V5.7895C145.731 5.80963 146.136 5.74652 146.516 5.60405C146.895 5.46158 147.242 5.24279 147.534 4.96118C147.825 4.67957 148.056 4.34113 148.212 3.96675C148.368 3.59237 148.446 3.19 148.44 2.7845ZM139.409 14.2025L138.163 14.8255C137.342 13.6799 136.939 12.2874 137.021 10.8805C137.015 10.1424 137.12 9.40751 137.332 8.7005L139.512 7.7665L139.409 14.2025ZM152.073 1.7415H151.973L149.897 3.5065V3.6065L151.658 5.5845H151.866L153.942 3.8195V3.7195L152.074 1.7475L152.073 1.7415ZM155.187 17.1045L154.357 17.6235L153.319 16.5845V9.4235L154.357 8.6965L154.149 8.4885L153.422 9.1115L151.554 6.9315L148.544 9.0075L148.752 9.3185L149.479 8.7995L150.413 9.9415V16.6845L149.064 17.7225L149.164 17.9305L149.891 17.4115L152.175 19.4875L155.289 17.4115L155.189 17.1005L155.187 17.1045ZM172.522 17.0045L171.795 17.5235L170.654 16.4845V9.4235L171.692 8.5935L171.484 8.3855L170.654 9.1125L168.266 6.9325L165.152 9.1125L162.765 6.9325L159.858 9.1125L157.99 6.9325L154.98 9.0085L155.08 9.3195L155.807 8.8005L156.845 9.9425V16.6845L156.015 17.5145L158.403 19.4865L160.687 17.4105L159.753 16.4765V9.4235L160.687 8.8005L162.244 10.2535V16.4845L161.414 17.3145L163.8 19.2845L166.084 17.2085L165.15 16.2745V9.4235L165.98 8.9045L167.641 10.3575V16.5845L166.914 17.3115L169.302 19.4915L172.52 17.3115V17.0005L172.522 17.0045ZM181.553 15.4475L178.953 17.4195L176.353 15.3435V14.0945L181.232 10.7725V10.6725L178.741 6.9355L173.341 9.8425V16.9015L176.974 19.5015L181.645 15.7645L181.553 15.4475ZM176.363 13.6825V8.5925L176.571 8.4925L178.855 12.1255L176.363 13.6825ZM191 12.7445L189.028 11.1845C189.583 10.727 190.036 10.1584 190.359 9.51539C190.681 8.87235 190.865 8.169 190.9 7.4505V6.8275H190.692C190.594 7.13391 190.399 7.40045 190.138 7.58747C189.876 7.77449 189.561 7.872 189.239 7.8655C188.867 7.85497 188.503 7.75516 188.178 7.5745C187.853 7.39384 187.576 7.13764 187.371 6.8275L182.7 9.4275V13.1645L184.465 14.5135C182.7 16.0705 182.389 17.1135 182.389 17.9395C182.36 18.3846 182.476 18.8271 182.719 19.2011C182.962 19.5752 183.32 19.8608 183.738 20.0155L183.838 19.8075C183.702 19.7177 183.592 19.5938 183.519 19.4481C183.446 19.3024 183.413 19.1401 183.423 18.9775C183.423 18.6665 183.838 18.1475 184.669 18.1475C185.052 18.1729 185.425 18.2782 185.765 18.4569C186.104 18.6355 186.402 18.8834 186.64 19.1845L191.104 16.4845V12.7445H191ZM189.858 9.6305C189.002 10.8714 187.908 11.9299 186.64 12.7445L185.498 11.8105V8.1775C185.725 8.71237 186.1 9.17181 186.578 9.50246C187.055 9.83311 187.617 10.0214 188.198 10.0455C188.781 10.0818 189.361 9.93681 189.858 9.6305ZM188.093 17.9305C187.822 17.3562 187.397 16.8681 186.866 16.5201C186.335 16.1721 185.718 15.9777 185.083 15.9585C184.39 15.9391 183.705 16.1192 183.111 16.4775C184.07 15.1226 185.309 13.9897 186.744 13.1555L187.99 14.1935L188.09 17.9305H188.093Z" fill="#272575"/>
</g>
<defs>
<clipPath id="clip0_502_453">
<rect width="191.104" height="25.121" fill="white" transform="translate(0 0.184502)"/>
</clipPath>
</defs>
</svg>
