<svg width="123" height="32" viewBox="0 0 123 32" fill="none" xmlns="http://www.w3.org/2000/svg">
<g clip-path="url(#clip0_502_513)">
<path fill-rule="evenodd" clip-rule="evenodd" d="M9.13401 15.657H6.72301V30.624H9.57001C12.516 30.624 14.21 27.853 14.263 23.456C14.325 18.277 12.282 15.656 9.13501 15.656M8.435 1.69401L6.72701 1.68501V15.185H9.439C11.783 15.185 13.702 12.724 13.689 8.43C13.674 3.636 11.549 1.69401 8.435 1.69401ZM10.41 30.894H0.128009C0.0610088 30.894 0.0610088 30.618 0.128009 30.618H3.06801L3.07801 1.69401L0.132007 1.69898V1.399H8.93801C12.688 1.399 17.369 2.12601 17.538 8.26301C17.703 14.313 12.585 15.425 10.238 15.425C13.988 15.425 18.571 18.225 18.571 23.204C18.5461 24.2472 18.3146 25.2751 17.8899 26.2283C17.4651 27.1814 16.8556 28.0409 16.0966 28.757C15.3376 29.473 14.4441 30.0315 13.4678 30.4C12.4915 30.7686 11.4519 30.9399 10.409 30.904" fill="#272575"/>
<path fill-rule="evenodd" clip-rule="evenodd" d="M26.271 7.00499L22.291 21.865H29.871L26.271 7.00499ZM29.191 30.86V30.649H32.419L30.053 22.182H22.294L20.644 28.264C20.276 29.771 20.108 30.647 20.108 30.647H23.249V30.858H16.827V30.647H19.779C19.779 30.647 19.941 29.896 20.343 28.264L27.776 0.426991L36.324 30.65H39.293V30.85H29.193L29.191 30.86Z" fill="#272575"/>
<path fill-rule="evenodd" clip-rule="evenodd" d="M41.415 30.86L54.032 1.485H47.932C43.447 1.553 42.183 7.03799 42.106 12.851C42.096 13.628 42.033 14.651 41.997 15.805C41.997 15.805 41.797 15.817 41.797 15.785L41.811 1.18501H57.846L45.412 30.651L50.968 30.658C56.329 30.483 57.394 26.605 57.584 15.806H57.829V30.852L41.415 30.86Z" fill="#272575"/>
<path fill-rule="evenodd" clip-rule="evenodd" d="M110.715 1.486H108.536V15.28H111.248C114.295 15.28 115.763 13.38 115.976 8.61601C116.209 3.39001 113.592 1.486 110.713 1.486M121.634 31.196C121.051 31.4557 120.416 31.5772 119.779 31.551C116.748 31.551 115.71 29.327 115.833 23.432V20.712C115.833 17.029 114.062 15.751 111.249 15.751H108.538L108.546 30.675H112.041V30.841H101.941L101.932 30.684H104.902L104.887 1.465L101.941 1.47001V1.16999H111.45C116.07 1.16999 119.89 2.431 119.896 8.452C119.902 13.541 115.773 15.486 112.558 15.486C117.313 15.486 120.132 17.478 119.582 23.519L119.474 27.286C119.474 29.42 119.752 30.997 120.974 30.986C121.161 30.9985 121.348 30.9714 121.524 30.9064C121.7 30.8414 121.86 30.7401 121.994 30.609C122.247 30.3019 122.409 29.9302 122.461 29.536C122.513 29.2309 122.528 28.9207 122.506 28.612C122.506 28.612 122.523 24.264 122.506 24.243C122.584 24.2513 122.664 24.2513 122.742 24.243L122.736 26.953C122.764 29.38 122.762 29.677 122.557 30.161C122.381 30.6039 122.054 30.9704 121.634 31.196Z" fill="#272575"/>
<path fill-rule="evenodd" clip-rule="evenodd" d="M68.622 7.012L64.641 21.872H72.223L68.622 7.012ZM71.541 30.868V30.668H74.769L72.403 22.192H64.644L62.994 28.274C62.626 29.781 62.458 30.657 62.458 30.657H65.599V30.868H59.177V30.657H62.129C62.129 30.657 62.291 29.906 62.693 28.274L70.126 0.436983L78.673 30.665H81.642V30.865L71.541 30.868Z" fill="#272575"/>
<path fill-rule="evenodd" clip-rule="evenodd" d="M89.467 7.01899L85.486 21.879H93.068L89.467 7.01899ZM92.386 30.875V30.663H95.614L93.248 22.196H85.489L83.84 28.278C83.472 29.785 83.303 30.661 83.303 30.661H86.444V30.873H80.023V30.666H82.975C82.975 30.666 83.137 29.915 83.539 28.283L90.972 0.445994L99.52 30.669H102.489V30.869L92.386 30.875Z" fill="#272575"/>
<path fill-rule="evenodd" clip-rule="evenodd" d="M74.069 2.69V4.143H74.515V4.26199H73.049V4.143H73.495V1.20901H73.049V1.08999H74.518V1.20901H74.072V2.57101H75.272V1.20901H74.825V1.08999H76.294V1.20901H75.849V4.143H76.295V4.26199H74.826V4.143H75.273V2.69H74.069Z" fill="#272575"/>
<path fill-rule="evenodd" clip-rule="evenodd" d="M77.64 3.31099C77.361 3.31099 76.986 3.34902 76.986 3.73302C76.986 3.94202 77.067 4.09801 77.279 4.09801C77.356 4.09096 77.429 4.06028 77.4879 4.01015C77.5468 3.96003 77.5888 3.89291 77.6081 3.81801C77.6331 3.73819 77.6439 3.65458 77.64 3.571V3.31099ZM77.64 2.618C77.64 2.495 77.419 2.44701 77.34 2.44701C77.168 2.44701 76.957 2.537 77.025 2.627C77.0653 2.6963 77.087 2.77484 77.088 2.855C77.0857 2.9109 77.062 2.96377 77.0218 3.00268C76.9816 3.04158 76.928 3.06355 76.872 3.06402C76.8414 3.06707 76.8105 3.06348 76.7815 3.05352C76.7524 3.04356 76.7258 3.02747 76.7035 3.00631C76.6812 2.98515 76.6637 2.95942 76.6522 2.9309C76.6408 2.90238 76.6356 2.8717 76.637 2.84099C76.637 2.47999 77.079 2.35201 77.354 2.35201C77.5539 2.34686 77.7521 2.3908 77.9311 2.48C77.9865 2.50368 78.0327 2.54482 78.0627 2.59716C78.0927 2.6495 78.1047 2.71019 78.097 2.77001V4.03301C78.0995 4.0592 78.1123 4.08333 78.1325 4.10018C78.1527 4.11703 78.1788 4.12523 78.205 4.12301C78.259 4.12301 78.327 4.052 78.363 4.014L78.417 4.08001C78.3722 4.15426 78.3097 4.21619 78.2349 4.26018C78.1602 4.30418 78.0757 4.32887 77.989 4.33202C77.9438 4.33308 77.8989 4.32518 77.8567 4.3088C77.8146 4.29241 77.7761 4.26785 77.7434 4.23653C77.7108 4.20521 77.6847 4.16775 77.6666 4.1263C77.6485 4.08485 77.6388 4.04023 77.638 3.99502C77.5611 4.09738 77.4619 4.1809 77.3479 4.23928C77.2339 4.29766 77.108 4.32939 76.98 4.33202C76.9177 4.33787 76.855 4.33005 76.796 4.30913C76.7371 4.28821 76.6834 4.25466 76.6388 4.21087C76.5941 4.16707 76.5596 4.11406 76.5375 4.05553C76.5154 3.997 76.5064 3.93437 76.511 3.872C76.511 3.307 77.232 3.189 77.638 3.212V2.618H77.64Z" fill="#272575"/>
<path fill-rule="evenodd" clip-rule="evenodd" d="M79.327 2.88898C79.472 2.62798 79.627 2.353 79.958 2.353C80.0022 2.34787 80.0469 2.3519 80.0895 2.36487C80.132 2.37785 80.1714 2.3995 80.2052 2.42841C80.239 2.45733 80.2665 2.49291 80.2859 2.53293C80.3053 2.57296 80.3162 2.61654 80.318 2.66099C80.3206 2.69815 80.3148 2.73544 80.3011 2.77012C80.2875 2.80479 80.2664 2.83599 80.2392 2.86146C80.212 2.88692 80.1795 2.906 80.144 2.91733C80.1085 2.92867 80.0709 2.93196 80.034 2.92698C79.9771 2.92425 79.9233 2.90023 79.8832 2.85965C79.8432 2.81908 79.8199 2.76494 79.818 2.70798C79.8193 2.68413 79.8223 2.66042 79.827 2.637C79.841 2.561 79.845 2.53699 79.796 2.53699C79.7582 2.53955 79.7213 2.5507 79.6884 2.56959C79.6555 2.58847 79.6273 2.6146 79.606 2.646C79.4907 2.79471 79.4066 2.96512 79.3586 3.14707C79.3107 3.32902 79.2999 3.51878 79.327 3.70499V4.146H79.733V4.26499H78.574V4.146H78.84V2.504H78.54V2.38498C78.775 2.39398 79.049 2.376 79.324 2.366L79.327 2.88898Z" fill="#272575"/>
<path fill-rule="evenodd" clip-rule="evenodd" d="M82.031 2.86C82.031 2.604 81.963 2.447 81.688 2.447C81.413 2.447 81.161 2.81199 81.161 2.99299V3.61C81.1507 3.76084 81.1987 3.90989 81.2951 4.02638C81.3915 4.14287 81.5289 4.2179 81.679 4.236C81.7274 4.24171 81.7765 4.23622 81.8224 4.21995C81.8683 4.20369 81.9099 4.17708 81.9439 4.14219C81.9779 4.10731 82.0035 4.06508 82.0186 4.01875C82.0337 3.97242 82.0379 3.92324 82.031 3.87501V2.86ZM81.161 2.74598H81.17C81.2164 2.63517 81.2929 2.53958 81.3908 2.46995C81.4887 2.40033 81.6041 2.35947 81.724 2.352C81.9646 2.37441 82.1871 2.48949 82.3444 2.67292C82.5017 2.85636 82.5816 3.09379 82.567 3.335C82.5787 3.57731 82.4982 3.81505 82.3419 4.00053C82.1855 4.18601 81.9648 4.3055 81.724 4.335C81.6081 4.34309 81.4926 4.31501 81.3934 4.25465C81.2941 4.19429 81.2161 4.10461 81.17 3.998H81.16V5.25599H81.476V5.37501H80.35V5.25599H80.674V2.503H80.345V2.38398C80.611 2.39298 80.886 2.374 81.161 2.365V2.74598Z" fill="#272575"/>
<path fill-rule="evenodd" clip-rule="evenodd" d="M83.983 3.09301C83.983 2.77501 84.06 2.44701 83.658 2.44701C83.284 2.44701 83.325 2.79301 83.325 3.09301H83.983ZM83.325 3.21199V3.592C83.325 3.924 83.343 4.23702 83.725 4.23702C83.8829 4.22871 84.0335 4.16821 84.1534 4.06505C84.2732 3.96189 84.3553 3.82191 84.387 3.66701H84.5C84.4635 3.86528 84.3547 4.04294 84.1947 4.16561C84.0347 4.28827 83.8349 4.34722 83.634 4.33101C83.3941 4.30648 83.1727 4.19108 83.0152 4.00847C82.8577 3.82587 82.7761 3.58991 82.787 3.34902C82.7791 3.09844 82.8683 2.85449 83.036 2.66814C83.2038 2.48179 83.437 2.36746 83.687 2.34902C83.7911 2.34554 83.8948 2.36293 83.9921 2.4002C84.0894 2.43746 84.1781 2.49383 84.2533 2.56597C84.3284 2.63811 84.3884 2.72457 84.4295 2.82024C84.4707 2.91591 84.4923 3.01885 84.493 3.123C84.493 3.223 84.453 3.209 84.381 3.209L83.325 3.21199Z" fill="#272575"/>
<path fill-rule="evenodd" clip-rule="evenodd" d="M85.43 2.88898C85.574 2.62798 85.73 2.353 86.061 2.353C86.1052 2.34787 86.15 2.3519 86.1925 2.36487C86.235 2.37785 86.2744 2.3995 86.3082 2.42841C86.342 2.45733 86.3695 2.49291 86.3889 2.53293C86.4083 2.57296 86.4193 2.61654 86.421 2.66099C86.4236 2.69815 86.4178 2.73544 86.4042 2.77012C86.3905 2.80479 86.3694 2.83599 86.3422 2.86146C86.315 2.88692 86.2825 2.906 86.247 2.91733C86.2115 2.92867 86.1739 2.93196 86.137 2.92698C86.0799 2.92449 86.0258 2.90059 85.9856 2.85999C85.9454 2.81939 85.9219 2.7651 85.92 2.70798C85.9211 2.68411 85.9241 2.66038 85.929 2.637C85.943 2.561 85.947 2.53699 85.898 2.53699C85.8603 2.5397 85.8238 2.55092 85.791 2.5698C85.7583 2.58868 85.7302 2.61473 85.709 2.646C85.5937 2.79471 85.5096 2.96512 85.4617 3.14707C85.4137 3.32902 85.4029 3.51878 85.43 3.70499V4.146H85.835V4.26499H84.677V4.146H84.943V2.504H84.643V2.38498C84.878 2.39398 85.152 2.376 85.428 2.366V2.89298L85.43 2.88898Z" fill="#272575"/>
<path fill-rule="evenodd" clip-rule="evenodd" d="M87.242 1.96802C87.2324 2.12794 87.1848 2.28328 87.1033 2.42117C87.0217 2.55907 86.9085 2.67556 86.773 2.76102C86.7636 2.76554 86.7532 2.76755 86.7429 2.76684C86.7325 2.76614 86.7224 2.76274 86.7137 2.75699C86.7051 2.75124 86.6981 2.74333 86.6934 2.73404C86.6887 2.72475 86.6865 2.7144 86.687 2.70401C86.687 2.68501 86.759 2.62802 86.773 2.61902C86.9604 2.46798 87.0817 2.24991 87.111 2.01102C87.111 1.97302 87.093 1.81601 87.034 1.81601C86.975 1.81601 86.971 1.849 86.962 1.892C86.9492 1.94456 86.9184 1.99097 86.8749 2.02313C86.8314 2.05529 86.778 2.0712 86.724 2.06802C86.688 2.06477 86.6529 2.05438 86.6209 2.03751C86.5889 2.02063 86.5605 1.99759 86.5375 1.9697C86.5144 1.9418 86.4971 1.90962 86.4866 1.875C86.476 1.84038 86.4724 1.80402 86.476 1.768C86.4753 1.7251 86.4833 1.6825 86.4998 1.64285C86.5162 1.60321 86.5406 1.56736 86.5714 1.53754C86.6023 1.50771 86.639 1.48457 86.6791 1.46951C86.7193 1.45445 86.7621 1.44781 86.805 1.45001C87.094 1.45001 87.242 1.68701 87.242 1.96701" fill="#272575"/>
<path fill-rule="evenodd" clip-rule="evenodd" d="M87.322 4.26101H87.255V3.58202H87.377C87.422 3.91902 87.606 4.23702 87.949 4.23702C88.0534 4.23976 88.1548 4.20153 88.2314 4.13052C88.308 4.05951 88.3538 3.96135 88.359 3.85702C88.359 3.62002 88.152 3.59601 87.917 3.56301C87.453 3.49701 87.277 3.297 87.277 2.932C87.2712 2.85542 87.2818 2.7785 87.3081 2.70635C87.3345 2.63421 87.3759 2.56852 87.4297 2.5137C87.4834 2.45887 87.5483 2.41616 87.62 2.38845C87.6916 2.36074 87.7683 2.34867 87.845 2.35302C88.0049 2.35296 88.1601 2.40646 88.286 2.505L88.358 2.38201H88.435V2.94201H88.318C88.3118 2.81653 88.2606 2.69749 88.1737 2.60674C88.0868 2.516 87.9701 2.45966 87.845 2.44802C87.7993 2.44449 87.7534 2.45023 87.7101 2.46493C87.6667 2.47962 87.6267 2.50294 87.5926 2.5335C87.5585 2.56406 87.5309 2.60122 87.5116 2.64272C87.4922 2.68423 87.4815 2.72924 87.48 2.77502C87.48 2.91802 87.502 2.97001 87.908 3.04101C88.314 3.11201 88.552 3.188 88.552 3.677C88.5649 3.76504 88.5573 3.8549 88.5297 3.93951C88.5021 4.02411 88.4552 4.10118 88.3929 4.16464C88.3305 4.2281 88.2542 4.27622 88.1701 4.30526C88.086 4.3343 87.9962 4.34348 87.908 4.33202C87.7388 4.32072 87.579 4.24986 87.457 4.13201L87.322 4.26101Z" fill="#272575"/>
</g>
<defs>
<clipPath id="clip0_502_513">
<rect width="122.672" height="31.122" fill="white" transform="translate(0.0780029 0.428998)"/>
</clipPath>
</defs>
</svg>
