<svg width="247" height="24" viewBox="0 0 247 24" fill="none" xmlns="http://www.w3.org/2000/svg">
<g clip-path="url(#clip0_502_492)">
<path d="M23.3612 11.9661C23.3701 18.3218 18.1478 23.4811 11.6967 23.49C11.6913 23.49 11.6859 23.49 11.6805 23.49C5.23468 23.4775 0.0125139 18.3326 3.05176e-05 11.982C0.0214207 5.63761 5.24108 0.502297 11.6805 0.489998C18.1316 0.489998 23.3612 5.64224 23.3612 11.9979L23.3612 11.9661ZM22.657 11.9661C21.7422 9.97935 20.2669 8.29366 18.4067 7.11025C16.4269 5.77559 14.0795 5.0705 11.6806 5.08999C9.27188 5.07249 6.91493 5.77703 4.92206 7.11025C3.07622 8.30101 1.61309 9.98526 0.704031 11.9661C1.61642 13.9522 3.07825 15.645 4.92206 16.8504C6.92158 18.1662 9.27626 18.8601 11.6806 18.8421C14.0753 18.8625 16.4203 18.1682 18.4067 16.8504C20.2648 15.6522 21.7389 13.9583 22.657 11.9661ZM17.8941 11.9661C17.8956 15.338 15.1222 18.0729 11.6996 18.0743C10.0542 18.0753 8.47629 17.4313 7.31321 16.2847C4.8941 13.9012 4.8941 10.037 7.31321 7.65373C9.73249 5.27029 13.6547 5.27029 16.0737 7.65373C17.2626 8.77933 17.9222 10.3417 17.8941 11.9661Z" fill="#272575"/>
<path d="M25.441 11.9661C25.441 6.02339 30.4149 1.12291 36.9011 1.12291C40.3529 1.10646 43.6258 2.63516 45.7979 5.2786L42.7965 8.25152C42.7965 8.25152 40.6875 5.28179 36.9173 5.28179C33.1703 5.28179 30.1329 8.27452 30.1329 11.9661C30.1329 15.6577 33.1703 18.6502 36.9173 18.6502C40.8368 18.6502 42.9491 15.6807 42.9491 15.6807L45.9633 18.6502C43.7483 21.3213 40.4179 22.8513 36.9173 22.8059C30.4149 22.8123 25.441 17.9086 25.441 11.9661Z" fill="#272575"/>
<path d="M47.6375 1.56721H56.5342C60.7523 1.56721 63.3187 4.09255 63.3187 7.06547C63.3439 8.94193 62.2104 10.6456 60.4537 11.3714C60.4537 11.3714 64.3732 12.4134 64.3732 16.4221C64.3732 19.6922 61.6606 22.3647 57.1377 22.3647H47.6375V1.56721ZM56.2323 9.59089C57.7411 9.59089 58.6431 8.69902 58.6431 7.50985C58.6431 6.32061 57.7411 5.42873 56.2323 5.42873H52.1605V9.58434L56.2323 9.59089ZM56.836 18.5032C58.6431 18.5032 59.701 17.4642 59.701 15.9777C59.701 14.4913 58.6431 13.4526 56.836 13.4526H52.1604V18.5032H56.836Z" fill="#272575"/>
<path d="M64.9184 19.5421L67.9326 16.5722C69.1966 17.9772 71.0045 18.7899 72.9097 18.81C75.3205 18.81 76.3784 17.7712 76.3784 16.4318C76.3784 12.8673 65.8203 14.5137 65.8203 7.22214C65.8203 3.95504 68.6853 1.14838 73.5131 1.14838C78.1854 1.14838 80.5995 3.9711 80.5995 3.9711L77.582 6.94082C76.5758 5.84611 75.1609 5.20218 73.6625 5.15699C71.3913 5.15699 70.4959 6.04886 70.4959 7.23803C70.4959 10.8023 81.0507 9.15601 81.0507 16.4477C81.0507 19.8649 78.0366 22.841 73.0591 22.841C67.6307 22.8123 64.9184 19.5421 64.9184 19.5421Z" fill="#272575"/>
<path d="M88.1751 22.3948H92.7047V8.70937L99.4991 17.0396L106.293 8.70937V22.3948H110.823V1.56913H106.746L99.4991 10.4944L92.2517 1.56913H88.1751V22.3948Z" fill="#272575"/>
<path d="M117.935 11.982C117.935 8.2631 120.955 5.28801 124.729 5.28801C128.504 5.28801 131.524 8.2631 131.524 11.982C131.524 15.7009 128.504 18.6759 124.729 18.6759C120.955 18.6759 117.935 15.7009 117.935 11.982ZM113.254 11.982C113.254 17.9322 118.207 22.8411 124.729 22.8411C131.252 22.8411 136.204 17.9322 136.204 11.982C136.204 6.03178 131.252 1.12286 124.729 1.12286C118.207 1.12286 113.254 6.03178 113.254 11.982Z" fill="#272575"/>
<path d="M138.53 22.3948H143.06V15.5521H147.287L151.062 22.3948H156.045L151.666 14.6596C152.361 14.3621 152.965 13.9455 153.478 13.41C154.414 12.4877 155.29 10.9407 155.29 8.56061C155.29 4.39547 152.421 1.56913 147.891 1.56913H138.53V22.3948ZM143.06 11.387V5.73427H147.74C149.431 5.73427 150.609 6.89455 150.609 8.56061C150.609 10.2267 149.431 11.387 147.74 11.387H143.06Z" fill="#272575"/>
<path d="M157.773 22.3948H162.303V9.45315L172.57 22.3948H176.646V1.56913H172.117V14.5108L161.85 1.56913H157.773V22.3948Z" fill="#272575"/>
<path d="M179.444 22.3948H183.974V1.56913H179.444V22.3948Z" fill="#272575"/>
<path d="M186.877 22.3948H191.407V9.45315L201.674 22.3948H205.75V1.56913H201.221V14.5108L190.954 1.56913H186.877V22.3948Z" fill="#272575"/>
<path d="M220.327 14.5108H224.253V17.0396C223.921 17.3669 223.498 17.6347 223.045 17.8727C222.23 18.3189 221.112 18.6759 219.572 18.6759C215.798 18.6759 212.778 15.7009 212.778 11.982C212.778 8.2631 215.798 5.28801 219.572 5.28801C221.475 5.28801 222.924 6.03178 223.921 6.77556C224.494 7.22182 225.008 7.69784 225.461 8.26311L228.48 5.28801C227.846 4.51448 227.122 3.83021 226.246 3.20543C224.766 2.16415 222.501 1.12286 219.572 1.12286C213.05 1.12286 208.097 6.03178 208.097 11.982C208.097 17.9322 213.05 22.8411 219.572 22.8411C222.592 22.8411 224.887 21.8891 226.427 20.8478C227.333 20.2528 228.118 19.5685 228.782 18.8247V10.9407H220.327V14.5108Z" fill="#272575"/>
<path d="M230.844 19.5685C231.388 20.1933 232.052 20.7288 232.868 21.2048C234.227 22.0378 236.25 22.8411 238.998 22.8411C243.98 22.8411 247 19.866 247 16.4446C247 9.18538 236.431 10.7622 236.431 7.22182C236.431 6.03178 237.307 5.13925 239.602 5.13925C240.81 5.13925 241.776 5.58551 242.47 6.03178C242.863 6.29954 243.195 6.59704 243.527 6.92431L246.547 3.94921C246.034 3.44344 245.46 2.96743 244.765 2.55091C243.588 1.83689 241.776 1.12286 239.451 1.12286C234.619 1.12286 231.75 3.94921 231.75 7.22182C231.75 14.4811 242.319 12.9043 242.319 16.4446C242.319 17.7834 241.263 18.8247 238.847 18.8247C237.246 18.8247 236.008 18.2892 235.163 17.7239C234.649 17.3967 234.227 17.0099 233.864 16.5934L230.844 19.5685Z" fill="#272575"/>
</g>
<defs>
<clipPath id="clip0_502_492">
<rect width="247" height="23" fill="white" transform="translate(0 0.489998)"/>
</clipPath>
</defs>
</svg>
