<svg width="156" height="46" viewBox="0 0 156 46" fill="none" xmlns="http://www.w3.org/2000/svg">
<path d="M111.339 42.4863V41.9922H111.597V40.0586H111.339V39.8223H107.988V40.0586H107.236V40.3164H106.763V40.5527H106.291V40.8105H106.033V41.0254H105.818V41.5195H105.56V42.4863H105.818V42.9805H106.291V43.1953H106.763V43.4531H108.203V43.6895H108.461V43.4531H109.664V43.1953H110.158V42.9805H110.63V42.7227H111.125V42.4863H111.339ZM108.461 34.043V33.7852H111.834V34.043H112.306V34.2578H112.8V34.4941H113.058V34.752H113.295V34.9883H113.552V35.4609H113.767V38.125H113.552V43.1953H114.476V42.9805H115.228V43.1953H115.443V43.4531H115.701V44.1621H115.443V44.4199H114.476V44.6562H113.767V44.9141H112.091V44.6562H111.834V44.4199H111.339V44.1621H110.867V44.4199H110.158V44.6562H109.17V44.9141H105.818V44.6562H105.324V44.4199H104.851V44.1621H104.357V43.9473H104.099V43.4531H103.884V42.9805H103.627V41.2832H103.884V40.8105H104.099V40.3164H104.357V40.0586H104.593V39.8223H105.066V39.5645H105.56V39.3496H106.033V39.0918H106.763V38.8555H107.73V38.5977H109.17V38.3828H109.427V38.5977H110.63V38.3828H111.339V38.125H111.597V37.8887H111.834V35.9551H111.597V35.7188H111.339V35.4609H111.125V35.2246H110.63V34.9883H108.697V35.2246H108.203V35.4609H107.73V35.7188H107.494V35.9551H107.236V36.6855H107.021V36.9219H106.763V37.1797H105.56V36.9219H105.324V36.6855H105.066V35.4609H105.324V34.9883H105.818V34.752H106.291V34.4941H106.763V34.2578H107.236V34.043H108.461Z" fill="#272575"/>
<path d="M94.2078 29.2734V29.0371H95.4109V29.2734H95.8836V29.5312H96.1414V29.7461H96.3777V31.207H96.1414V31.4434H95.8836V31.7012H95.6688V31.916H95.4109V32.1738H94.9168V32.4102H94.2078V32.1738H93.4988V31.916H93.241V31.7012H93.0047V30.2402H93.241V29.7461H93.4988V29.5312H93.7137V29.2734H94.2078ZM93.9715 34.1289V33.8711H94.9168V34.1289H95.4109V34.8379H95.6688V35.5469H95.4109V43.0664H95.6688V43.2812H96.1414V43.5391H99.9871V43.7754H100.481V44.7422H100.245V45H99.7723V45.2363H98.5477V45H90.8133V45.2363H90.3621V45H89.868V44.5059H89.6102V44.248H89.868V43.7754H90.1043V43.5391H92.532V43.2812H93.0047V43.0664H93.4988V35.8047H92.7469V35.5469H91.0711V35.8047H90.1043V35.5469H89.868V35.3105H89.6102V34.6016H89.868V34.3438H91.7801V34.1289H93.9715Z" fill="#272575"/>
<path d="M83.8008 33.8066V33.5918H84.5312V33.8066H85.498V34.0645H85.9922V34.3008H86.207V34.5586H86.4648V35.7617H86.207V35.9766H85.9922V36.2344H83.8008V35.9766H83.0703V35.7617H82.8555V35.9766H81.8887V36.2344H81.3945V36.4707H80.9219V36.7285H80.6641V36.9648H80.4277V37.2227H80.1699V37.4375H79.9336V37.6953H79.6758V37.9316H79.4609V43.002H79.6758V43.2383H79.9336V43.4961H83.5645V43.7324H83.8008V44.2051H84.0586V44.4629H83.8008V44.6992H83.5645V44.957H81.1367V44.6992H80.9219V44.957H75.8301V44.6992H75.6152V44.4629H75.3574V43.7324H75.6152V43.4961H76.7969V43.2383H77.291V43.002H77.5273V42.5293H77.7852V38.6406H77.5273V38.1895H77.7852V37.9316H77.5273V35.9766H77.291V35.7617H76.7969V35.5039H76.0664V35.7617H74.8633V35.9766H74.6484V35.5039H74.3906V34.5586H74.6484V34.3008H76.0664V34.0645H77.5273V33.8066H78.752V34.3008H78.9668V34.5586H79.2246V35.2676H79.4609V35.7617H79.9336V35.5039H80.4277V35.2676H80.6641V35.0098H80.9219V34.7949H81.3945V34.5586H81.8887V34.3008H82.3613V34.0645H82.8555V33.8066H83.8008Z" fill="#272575"/>
<path d="M66.884 42.4863V41.9922H67.1418V40.0586H66.884V39.8223H63.5324V40.0586H62.7805V40.3164H62.3078V40.5527H61.8351V40.8105H61.5773V41.0254H61.3625V41.5195H61.1047V42.4863H61.3625V42.9805H61.8351V43.1953H62.3078V43.4531H63.7473V43.6895H64.0051V43.4531H65.2082V43.1953H65.7023V42.9805H66.175V42.7227H66.6691V42.4863H66.884ZM64.0051 34.043V33.7852H67.3781V34.043H67.8508V34.2578H68.3449V34.4941H68.6027V34.752H68.8391V34.9883H69.0969V35.4609H69.3117V38.125H69.0969V43.1953H70.0207V42.9805H70.7726V43.1953H70.9875V43.4531H71.2453V44.1621H70.9875V44.4199H70.0207V44.6562H69.3117V44.9141H67.6359V44.6562H67.3781V44.4199H66.884V44.1621H66.4113V44.4199H65.7023V44.6562H64.7141V44.9141H61.3625V44.6562H60.8683V44.4199H60.3957V44.1621H59.9016V43.9473H59.6437V43.4531H59.4289V42.9805H59.1711V41.2832H59.4289V40.8105H59.6437V40.3164H59.9016V40.0586H60.1379V39.8223H60.6105V39.5645H61.1047V39.3496H61.5773V39.0918H62.3078V38.8555H63.2746V38.5977H64.7141V38.3828H64.9719V38.5977H66.175V38.3828H66.884V38.125H67.1418V37.8887H67.3781V35.9551H67.1418V35.7188H66.884V35.4609H66.6691V35.2246H66.175V34.9883H64.2414V35.2246H63.7473V35.4609H63.2746V35.7188H63.0383V35.9551H62.7805V36.6855H62.5656V36.9219H62.3078V37.1797H61.1047V36.9219H60.8683V36.6855H60.6105V35.4609H60.8683V34.9883H61.3625V34.752H61.8351V34.4941H62.3078V34.2578H62.7805V34.043H64.0051Z" fill="#272575"/>
<path d="M41.0511 29.252V29.0156H43.4789V29.252H44.1879V29.5098H44.4027V29.7461H44.6605V30.2188H44.8969V30.7129H45.1547V31.1855H45.391V31.916H45.6488V32.3887H45.8636V32.8828H46.1215V33.3555H46.3578V33.8496H46.6156V34.3223H46.8304V34.8164H47.0883V35.3105H47.3246V36.0195H47.5394V36.2773H47.7972V36.75H48.5277V36.2773H48.7855V36.0195H49.0004V35.3105H49.2582V34.8164H49.4945V34.0859H49.7523V33.5918H49.9672V33.1406H50.225V32.6465H50.4613V31.916H50.7191V31.1855H50.934V30.4551H51.1703V30.2188H51.4281V29.7461H51.6644V29.252H55.5316V29.5098H56.0258V30.7129H55.7679V30.4551H55.2738V30.7129H54.8011V30.9277H53.8558V31.4219H53.598V31.6797H53.8558V34.0859H53.598V34.8164H53.8558V36.0195H53.598V38.1895H53.8558V39.1562H53.598V39.4141H53.8558V40.123H53.598V41.3262H53.8558V41.8203H53.598V42.293H53.8558V42.7871H54.0707V43.0449H54.8011V43.2598H55.5316V43.5176H55.7679V43.7539H56.0258V44.4629H55.7679V44.7207H54.8011V44.957H54.0707V44.7207H50.4613V44.4629H50.225V44.248H49.9672V44.0117H50.225V43.5176H50.4613V43.2598H51.1703V43.0449H51.6644V42.7871H51.9222V37.9531H52.1371V34.5586H51.9222V32.8828H51.6644V33.3555H51.4281V33.5918H51.1703V34.0859H50.934V34.5586H50.7191V35.0527H50.4613V35.3105H50.225V36.0195H49.9672V36.75H49.7523V36.9863H49.4945V37.4805H49.2582V37.9531H49.0004V38.4473H48.7855V38.6621H48.5277V39.1562H48.2914V39.4141H47.7972V39.1562H47.5394V38.9199H47.3246V38.6621H47.0883V38.1895H46.8304V37.9531H46.6156V37.2227H46.3578V36.75H46.1215V36.2773H45.8636V35.7832H45.6488V35.3105H45.391V34.8164H45.1547V34.3223H44.8969V33.8496H44.6605V33.3555H43.9301V35.0527H43.6937V35.7832H43.9301V36.0195H43.6937V38.9199H43.9301V41.8203H44.1879V42.5508H44.4027V42.7871H44.6605V43.0449H45.6488V43.2598H46.1215V44.0117H46.3578V44.248H46.1215V44.4629H45.8636V44.7207H41.0511V44.4629H40.7933V43.5176H41.0511V43.2598H41.266V43.0449H41.7601V42.7871H42.0179V42.5508H42.2543V38.6621H42.5121V30.9277H42.2543V30.7129H41.7601V30.4551H40.557V29.7461H40.2992V29.5098H40.557V29.252H41.0511Z" fill="#272575"/>
<path d="M152.761 5.80664V5.5918H153.492V5.80664H154.459V6.06445H154.953V6.30078H155.168V6.55859H155.425V7.76172H155.168V7.97656H154.953V8.23438H152.761V7.97656H152.031V7.76172H151.816V7.97656H150.849V8.23438H150.355V8.4707H149.882V8.72852H149.625V8.96484H149.388V9.22266H149.13V9.4375H148.894V9.69531H148.636V9.93164H148.422V15.002H148.636V15.2383H148.894V15.4961H152.525V15.7324H152.761V16.2051H153.019V16.4629H152.761V16.6992H152.525V16.957H150.097V16.6992H149.882V16.957H144.791V16.6992H144.576V16.4629H144.318V15.7324H144.576V15.4961H145.757V15.2383H146.252V15.002H146.488V14.5293H146.746V10.6406H146.488V10.1895H146.746V9.93164H146.488V7.97656H146.252V7.76172H145.757V7.50391H145.027V7.76172H143.824V7.97656H143.609V7.50391H143.351V6.55859H143.609V6.30078H145.027V6.06445H146.488V5.80664H147.713V6.30078H147.927V6.55859H148.185V7.26758H148.422V7.76172H148.894V7.50391H149.388V7.26758H149.625V7.00977H149.882V6.79492H150.355V6.55859H150.849V6.30078H151.322V6.06445H151.816V5.80664H152.761Z" fill="#272575"/>
<path d="M137.563 10.125V9.65234H137.778V9.39453H137.563V8.92188H137.305V8.68555H137.069V8.42773H136.811V7.95508H136.339V7.71875H136.102V7.46094H135.35V7.22461H133.46V7.46094H132.966V7.71875H132.708V7.95508H132.471V8.21289H132.214V8.42773H131.999V8.68555H131.741V8.92188H131.505V9.39453H131.247V10.5977H135.136V10.3828H137.305V10.125H137.563ZM132.966 6.04297V5.78516H136.339V6.04297H136.811V6.25781H137.305V6.49414H137.563V6.75195H138.014V6.98828H138.272V7.22461H138.487V7.46094H138.745V7.95508H138.981V8.21289H139.239V8.68555H139.475V9.39453H139.733V11.3496H139.475V11.5645H138.745V11.8223H132.471V12.0586H131.247V12.3164H131.032V13.0254H131.247V13.5195H131.505V13.9922H131.741V14.2285H131.999V14.4863H132.214V14.7227H132.708V14.9805H133.202V15.1953H134.169V15.4531H136.102V15.1953H137.563V14.9805H138.272V14.7227H138.981V14.4863H139.948V14.7227H140.206V15.4531H139.948V15.6895H139.733V15.9473H139.239V16.1621H138.745V16.4199H137.778V16.6562H136.811V16.9141H135.608V17.1504H133.202V16.9141H132.214V16.6562H131.505V16.4199H131.032V16.1621H130.774V15.9473H130.538V15.6895H130.065V15.4531H129.829V14.9805H129.571V14.7227H129.335V14.2285H129.077V13.0254H128.862V10.8555H129.077V9.65234H129.335V9.17969H129.571V8.68555H129.829V8.21289H130.065V7.95508H130.323V7.71875H130.538V7.22461H130.774V6.98828H131.032V6.75195H131.505V6.49414H131.999V6.25781H132.471V6.04297H132.966Z" fill="#272575"/>
<path d="M115.318 0.779297V0.564453H116.027V0.779297H116.521V3.70117H116.285V10.9414H116.521V11.1777H116.994V10.9414H117.252V10.6836H117.488V10.4688H117.746V10.2324H118.24V9.97461H118.455V9.73828H118.691V9.48047H118.949V9.26562H119.164V9.00781H119.422V8.77148H119.658V8.51367H119.916V8.29883H120.131V7.54688H119.916V7.31055H119.658V6.60156H119.916V6.34375H124.256V6.60156H124.514V6.83789H124.729V7.31055H124.514V7.54688H123.762V7.80469H123.268V8.04102H122.795V8.29883H122.301V8.51367H121.85V8.77148H121.592V9.00781H121.377V9.26562H120.883V9.48047H120.625V9.73828H120.389V9.97461H120.131V10.2324H119.916V11.1777H120.131V11.4355H120.389V11.9082H120.625V12.1445H120.883V12.4023H121.119V12.8965H121.377V13.1113H121.592V13.3691H121.85V13.6055H122.086V13.8633H122.301V14.0781H122.559V14.3145H122.795V14.8086H123.053V15.0664H123.525V15.2812H123.762V15.5391H124.514V15.2812H125.932V15.7754H126.189V16.0332H125.932V16.5059H125.48V16.7422H125.223V17H124.514V17.2363H123.053V17H122.559V16.7422H122.301V16.5059H122.086V16.248H121.85V16.0332H121.592V15.7754H121.377V15.5391H121.119V15.2812H120.883V15.0664H120.625V14.8086H120.389V14.3145H120.131V14.0781H119.916V13.6055H119.658V13.3691H119.422V12.8965H119.164V12.6387H118.949V12.4023H118.691V11.9082H118.24V11.6504H117.982V11.9082H117.746V12.1445H117.488V12.4023H117.252V12.6387H116.994V12.8965H116.779V13.1113H116.521V13.3691H116.285V15.0664H116.521V15.5391H116.779V15.7754H117.746V16.0332H118.24V16.248H118.455V16.7422H118.24V17H114.846V17.2363H113.857V17H113.643V16.7422H113.385V16.248H113.643V15.7754H114.115V15.5391H114.352V14.0781H114.609V13.8633H114.352V13.1113H114.609V12.8965H114.352V11.4355H114.609V10.2324H114.352V9.26562H114.609V9.00781H114.352V8.51367H114.609V4.66797H114.352V2.71289H112.676V2.49805H112.418V2.00391H112.182V1.74609H112.418V1.53125H112.676V1.27344H113.857V1.03711H114.352V0.779297H115.318Z" fill="#272575"/>
<path d="M104.675 14.4863V13.9922H104.933V12.0586H104.675V11.8223H101.323V12.0586H100.571V12.3164H100.099V12.5527H99.6262V12.8105H99.3683V13.0254H99.1535V13.5195H98.8957V14.4863H99.1535V14.9805H99.6262V15.1953H100.099V15.4531H101.538V15.6895H101.796V15.4531H102.999V15.1953H103.493V14.9805H103.966V14.7227H104.46V14.4863H104.675ZM101.796 6.04297V5.78516H105.169V6.04297H105.642V6.25781H106.136V6.49414H106.394V6.75195H106.63V6.98828H106.888V7.46094H107.103V10.125H106.888V15.1953H107.812V14.9805H108.564V15.1953H108.779V15.4531H109.036V16.1621H108.779V16.4199H107.812V16.6562H107.103V16.9141H105.427V16.6562H105.169V16.4199H104.675V16.1621H104.202V16.4199H103.493V16.6562H102.505V16.9141H99.1535V16.6562H98.6594V16.4199H98.1867V16.1621H97.6926V15.9473H97.4348V15.4531H97.2199V14.9805H96.9621V13.2832H97.2199V12.8105H97.4348V12.3164H97.6926V12.0586H97.9289V11.8223H98.4016V11.5645H98.8957V11.3496H99.3683V11.0918H100.099V10.8555H101.066V10.5977H102.505V10.3828H102.763V10.5977H103.966V10.3828H104.675V10.125H104.933V9.88867H105.169V7.95508H104.933V7.71875H104.675V7.46094H104.46V7.22461H103.966V6.98828H102.032V7.22461H101.538V7.46094H101.066V7.71875H100.829V7.95508H100.571V8.68555H100.357V8.92188H100.099V9.17969H98.8957V8.92188H98.6594V8.68555H98.4016V7.46094H98.6594V6.98828H99.1535V6.75195H99.6262V6.49414H100.099V6.25781H100.571V6.04297H101.796Z" fill="#272575"/>
<path d="M84.1488 6.12891V5.87109H84.4066V6.12891H85.3304V6.34375H85.8246V6.60156H86.3187V6.83789H87.0492V6.60156H87.5433V6.34375H88.5101V6.12891H90.6801V6.34375H91.1527V6.60156H91.389V6.83789H91.6469V7.31055H91.8617V7.54688H92.1195V8.29883H92.3558V12.6387H92.1195V15.2812H92.3558V15.5391H92.85V15.7754H93.559V16.248H93.8168V16.5059H93.559V17H89.9281V16.7422H89.7133V16.5059H89.4554V16.248H89.7133V16.0332H89.9281V15.7754H90.1859V15.0664H90.4222V8.51367H90.1859V8.04102H89.7133V7.54688H87.7582V7.80469H87.5433V8.04102H87.2855V8.29883H87.0492V15.2812H87.2855V15.5391H87.5433V15.7754H88.2523V16.248H88.5101V16.5059H88.2523V17H84.8793V16.7422H84.6215V16.0332H84.8793V15.7754H85.1156V15.5391H85.3304V14.0781H85.5883V9.26562H85.3304V8.51367H85.1156V8.29883H84.8793V7.80469H84.6215V7.54688H82.9457V7.80469H82.6879V8.04102H82.1937V8.29883H81.9789V8.51367H81.7211V15.2812H81.9789V15.5391H82.1937V15.7754H83.182V16.0332H83.4398V16.248H83.6547V16.5059H83.4398V16.7422H83.182V17H79.809V16.7422H79.3148V15.7754H79.5511V15.5391H79.809V15.2812H80.0453V8.29883H79.809V8.04102H78.348V7.54688H78.0902V7.05273H78.348V6.60156H79.057V6.34375H80.3031V6.12891H81.2699V6.34375H81.7211V6.60156H81.9789V6.34375H82.9457V6.12891H84.1488Z" fill="#272575"/>
<path d="M64.2887 0.84375V0.585938H65.0406V0.84375H65.277V1.08008H65.5348V2.30469H65.277V3.98047H65.0406V4.71094H65.277V5.44141H65.0406V6.64453H65.277V7.35352H65.5348V7.13867H66.5016V6.88086H66.7164V6.64453H67.4254V6.4082H67.9196V6.15039H70.6051V6.4082H71.3141V6.64453H71.5504V6.88086H71.8082V7.13867H72.0231V7.35352H72.2809V7.61133H72.5172V8.10547H72.775V8.81445H72.9899V9.78125H73.2477V11.2422H72.9899V15.8398H74.4508V16.0547H74.9449V16.8066H74.6871V17.043H74.4508V17.3008H70.6051V17.043H70.111V16.0547H70.6051V15.8398H70.8199V15.582H71.0563V12.918H71.3141V10.0391H71.0563V9.30859H70.8199V8.81445H70.6051V8.57812H70.3473V8.32031H70.111V8.10547H69.6383V7.84766H67.6832V8.10547H66.9742V8.32031H66.2438V8.57812H65.7496V8.81445H65.5348V9.07227H65.277V9.30859H65.0406V14.873H65.277V15.582H65.7496V15.8398H66.9742V16.0547H67.4254V16.8066H67.2106V17.043H64.7828V17.3008H62.8707V17.043H62.3981V15.8398H62.8707V15.582H63.1071V15.3457H63.3649V4.96875H63.5797V4.2168H63.3649V3.25H63.1071V3.01367H62.6129V2.79883H61.6461V2.54102H61.4098V2.30469H61.152V1.81055H61.4098V1.55273H61.9039V1.33789H62.8707V1.08008H63.3649V0.84375H64.2887Z" fill="#272575"/>
<path d="M52.2488 6.04297V5.78516H55.3856V6.04297H56.0945V6.25781H56.5672V6.49414H56.825V6.75195H57.0613V6.98828H57.2762V7.22461H57.534V7.71875H57.7703V8.92188H58.0281V9.39453H57.7703V9.88867H57.534V10.125H56.3524V9.88867H55.8582V9.39453H55.6004V7.95508H55.3856V7.71875H55.1277V7.46094H54.3973V7.22461H52.4637V7.46094H51.991V7.71875H51.4969V7.95508H51.2606V8.21289H51.0027V8.42773H50.7879V8.68555H50.5301V8.92188H50.2938V9.39453H50.0359V10.125H49.8211V12.8105H50.0359V13.5195H50.2938V13.7344H50.5301V14.2285H50.7879V14.4863H51.0027V14.7227H51.4969V14.9805H51.991V15.1953H53.2156V15.4531H54.6336V15.1953H56.0945V14.9805H56.5672V14.7227H57.2762V14.4863H58.5223V14.7227H58.7371V15.4531H58.5223V15.6895H58.2645V15.9473H57.7703V16.1621H57.0613V16.4199H56.5672V16.6562H55.3856V16.9141H54.6336V17.1504H51.7547V16.9141H50.7879V16.6562H50.0359V16.4199H49.8211V16.1621H49.5848V15.9473H49.327V15.6895H49.1121V15.4531H48.8543V15.1953H48.618V14.7227H48.3602V14.2285H48.1238V13.5195H47.866V12.8105H47.6512V11.0918H47.866V9.65234H48.1238V9.17969H48.3602V8.68555H48.618V8.21289H48.8543V7.95508H49.1121V7.71875H49.327V7.46094H49.5848V7.22461H49.8211V6.98828H50.0359V6.75195H50.5301V6.49414H50.7879V6.25781H51.4969V6.04297H52.2488Z" fill="#272575"/>
<path d="M36.5137 3.63672V3.37891H37.4805V3.63672H37.7168V4.13086H37.9746V4.36719H37.7168V5.80664H37.9746V6.06445H38.9414V6.30078H39.4141V6.06445H43.2598V5.80664H43.5176V6.06445H43.7539V6.30078H44.0117V7.26758H43.5176V7.50391H42.0781V7.26758H41.8203V7.50391H37.4805V9.4375H37.2441V15.002H37.4805V15.2383H37.7168V15.4961H37.9746V15.7324H40.3809V15.4961H42.0781V15.2383H42.7871V15.002H44.0117V15.2383H44.5059V15.9688H44.248V16.2051H43.7539V16.4629H43.2598V16.6992H42.5508V16.957H41.3262V17.1719H39.1562V17.4297H37.9746V17.1719H37.2441V16.957H36.7715V16.6992H36.2773V16.2051H36.0195V15.9688H35.8047V15.4961H35.5469V9.93164H35.8047V7.76172H35.3105V7.50391H34.0859V7.26758H33.8496V6.55859H34.0859V6.30078H35.5469V6.06445H35.8047V5.5918H36.0195V3.63672H36.5137Z" fill="#272575"/>
<path d="M27.1594 14.4863V13.9922H27.4172V12.0586H27.1594V11.8223H23.8078V12.0586H23.0558V12.3164H22.5832V12.5527H22.1105V12.8105H21.8527V13.0254H21.6379V13.5195H21.3801V14.4863H21.6379V14.9805H22.1105V15.1953H22.5832V15.4531H24.0226V15.6895H24.2805V15.4531H25.4836V15.1953H25.9777V14.9805H26.4504V14.7227H26.9445V14.4863H27.1594ZM24.2805 6.04297V5.78516H27.6535V6.04297H28.1262V6.25781H28.6203V6.49414H28.8781V6.75195H29.1144V6.98828H29.3723V7.46094H29.5871V10.125H29.3723V15.1953H30.2961V14.9805H31.048V15.1953H31.2629V15.4531H31.5207V16.1621H31.2629V16.4199H30.2961V16.6562H29.5871V16.9141H27.9113V16.6562H27.6535V16.4199H27.1594V16.1621H26.6867V16.4199H25.9777V16.6562H24.9894V16.9141H21.6379V16.6562H21.1437V16.4199H20.6711V16.1621H20.1769V15.9473H19.9191V15.4531H19.7043V14.9805H19.4465V13.2832H19.7043V12.8105H19.9191V12.3164H20.1769V12.0586H20.4133V11.8223H20.8859V11.5645H21.3801V11.3496H21.8527V11.0918H22.5832V10.8555H23.55V10.5977H24.9894V10.3828H25.2473V10.5977H26.4504V10.3828H27.1594V10.125H27.4172V9.88867H27.6535V7.95508H27.4172V7.71875H27.1594V7.46094H26.9445V7.22461H26.4504V6.98828H24.5168V7.22461H24.0226V7.46094H23.55V7.71875H23.3137V7.95508H23.0558V8.68555H22.841V8.92188H22.5832V9.17969H21.3801V8.92188H21.1437V8.68555H20.8859V7.46094H21.1437V6.98828H21.6379V6.75195H22.1105V6.49414H22.5832V6.25781H23.0558V6.04297H24.2805Z" fill="#272575"/>
<path d="M1.32654 1.25195V1.01562H3.75427V1.25195H4.46326V1.50977H4.6781V1.74609H4.93591V2.21875H5.17224V2.71289H5.43005V3.18555H5.66638V3.91602H5.92419V4.38867H6.13904V4.88281H6.39685V5.35547H6.63318V5.84961H6.89099V6.32227H7.10583V6.81641H7.36365V7.31055H7.59998V8.01953H7.81482V8.27734H8.07263V8.75H8.8031V8.27734H9.06091V8.01953H9.27576V7.31055H9.53357V6.81641H9.7699V6.08594H10.0277V5.5918H10.2426V5.14062H10.5004V4.64648H10.7367V3.91602H10.9945V3.18555H11.2094V2.45508H11.4457V2.21875H11.7035V1.74609H11.9398V1.25195H15.807V1.50977H16.3011V2.71289H16.0433V2.45508H15.5492V2.71289H15.0765V2.92773H14.1312V3.42188H13.8734V3.67969H14.1312V6.08594H13.8734V6.81641H14.1312V8.01953H13.8734V10.1895H14.1312V11.1562H13.8734V11.4141H14.1312V12.123H13.8734V13.3262H14.1312V13.8203H13.8734V14.293H14.1312V14.7871H14.3461V15.0449H15.0765V15.2598H15.807V15.5176H16.0433V15.7539H16.3011V16.4629H16.0433V16.7207H15.0765V16.957H14.3461V16.7207H10.7367V16.4629H10.5004V16.248H10.2426V16.0117H10.5004V15.5176H10.7367V15.2598H11.4457V15.0449H11.9398V14.7871H12.1976V9.95312H12.4125V6.55859H12.1976V4.88281H11.9398V5.35547H11.7035V5.5918H11.4457V6.08594H11.2094V6.55859H10.9945V7.05273H10.7367V7.31055H10.5004V8.01953H10.2426V8.75H10.0277V8.98633H9.7699V9.48047H9.53357V9.95312H9.27576V10.4473H9.06091V10.6621H8.8031V11.1562H8.56677V11.4141H8.07263V11.1562H7.81482V10.9199H7.59998V10.6621H7.36365V10.1895H7.10583V9.95312H6.89099V9.22266H6.63318V8.75H6.39685V8.27734H6.13904V7.7832H5.92419V7.31055H5.66638V6.81641H5.43005V6.32227H5.17224V5.84961H4.93591V5.35547H4.20544V7.05273H3.96912V7.7832H4.20544V8.01953H3.96912V10.9199H4.20544V13.8203H4.46326V14.5508H4.6781V14.7871H4.93591V15.0449H5.92419V15.2598H6.39685V16.0117H6.63318V16.248H6.39685V16.4629H6.13904V16.7207H1.32654V16.4629H1.06873V15.5176H1.32654V15.2598H1.54138V15.0449H2.03552V14.7871H2.29333V14.5508H2.52966V10.6621H2.78748V2.92773H2.52966V2.71289H2.03552V2.45508H0.832397V1.74609H0.574585V1.50977H0.832397V1.25195H1.32654Z" fill="#272575"/>
</svg>
