<svg width="270" height="22" viewBox="0 0 270 22" fill="none" xmlns="http://www.w3.org/2000/svg">
<path d="M264.277 16.9531V16.3516H264.578V15.2031H264.277V14.9297H260.695V15.2031H259.793V15.5039H259.246V15.7773H258.699V16.0781H258.398V16.3242H258.152V16.9258H257.852V16.9531H258.152V17.5273H258.699V17.7734H259.246V18.0742H262.309V17.7734H262.883V17.5273H263.43V17.2266H264.004V16.9531H264.277ZM260.887 18.3477V18.0742H260.941V18.8945L260.75 18.3477H260.887ZM258.699 18.3203L258.508 17.7734H258.699V18.3203ZM259.246 18.6211L259.082 18.0742H259.246V18.6211ZM264.441 14.9297H264.277V14.3555L264.441 14.9297ZM259.465 7.27344V7.02734H260.887V6.72656H265.207V7.02734H265.754V7.27344H266.328V7.57422H266.629V7.875H266.902V8.14844H267.23V8.69531H267.477V12.9336H267.23V17.7734H267.941V17.5273H269.172V17.7734H269.445V18.0742H269.746V20.0156H269.445V20.3164H268.297V20.5898H267.477V20.8906H265.152V20.5898H264.852V20.3164H264.277V20.0156H264.059V20.3164H263.238V20.5898H262.062V20.8906H257.797V20.5898H257.195V20.3164H256.648V20.0156H256.074V19.7695H255.773V19.1953H255.527V18.6211H255.227V15.5312H255.527V14.9844H255.773V14.3828H256.074V14.082H256.348V13.8086H256.895V13.5078H257.496V13.2617H258.043V12.9609H258.891V12.6875H260.039V12.3867H261.734V12.1133H262.391V12.3867H263.43V12.1133H264.277V11.8125H264.578V11.5391H264.852V10.3906H264.578V10.1172H264.277V9.81641H264.004V9.51562H263.43V9.24219H261.516V9.51562H260.941V9.81641H260.395V10.1172H260.121V10.3906H259.793V11.2383H259.547V11.5117H259.246V11.8125H257.496V11.5117H257.195V11.2383H256.895V8.69531H257.195V8.14844H257.797V7.875H258.344V7.57422H258.891V7.27344H259.465Z" fill="white"/>
<path d="M244.973 1.72266V1.42188H245.547V1.14844H247.297V1.42188H247.871V1.72266H248.172V1.99609H248.445V4.8125H248.172V5.08594H247.871V5.38672H247.598V5.63281H247.297V5.93359H246.723V6.23438H245.547V5.93359H244.699V5.63281H244.398V5.38672H244.125V2.57031H244.398V1.99609H244.699V1.72266H244.973ZM242.703 7.38281V7.13672H245.273V6.83594H246.723V7.13672H247.297V7.95703H247.598V9.89844H247.297V17.6094H247.598V17.8828H248.172V18.1836H252.684V18.457H253.258V20.6992H252.984V21H252.438V21.2734H250.633V21H241.91V21.2734H241.035V21H240.461V20.4258H240.16V19.0039H240.461V18.457H240.734V18.1836H243.578V17.8828H244.125V17.6094H244.699V10.1992H243.824V9.89844H242.211V10.1992H240.734V9.89844H240.461V9.625H240.16V7.68359H240.461V7.38281H242.703Z" fill="white"/>
<path d="M233.543 7.05469V6.75391H234.664V6.50781H235.867V6.75391H236.988V7.05469H237.562V7.32812H237.836V7.62891H238.137V10.1445H237.836V10.418H237.562V10.7188H234.664V10.418H232.75V10.7188H232.176V10.9922H231.629V11.293H231.328V11.5664H231.055V11.8672H230.754V12.1133H230.453V12.4141H230.152V12.7148H229.906V17.5547H230.152V17.8281H230.453V18.1289H234.719V18.4023H234.992V18.9492H235.293V20.3711H234.992V20.6445H234.719V20.9453H225.285V20.6445H225.039V20.3711H224.738V18.4023H225.039V18.1289H226.434V17.8281H227.008V17.5547H227.281V16.9805H227.582V13.5352H227.281V10.418H227.008V10.1445H226.434V9.84375H225.914V10.1445H224.52V10.418H223.918V9.84375H223.617V7.62891H223.918V7.32812H225.586V7.05469H227.281V6.75391H229.086V7.32812H229.332V7.62891H229.633V8.47656H229.906V9.05078H230.125V8.75H230.699V8.47656H230.973V8.17578H231.273V7.90234H231.82V7.62891H232.395V7.32812H232.969V7.05469H233.543Z" fill="white"/>
<path d="M216.098 16.9531V16.3516H216.398V15.2031H216.098V14.9297H212.516V15.2031H211.613V15.5039H211.066V15.7773H210.52V16.0781H210.219V16.3242H209.973V16.9258H209.672V16.9531H209.973V17.5273H210.52V17.7734H211.066V18.0742H214.129V17.7734H214.703V17.5273H215.25V17.2266H215.824V16.9531H216.098ZM212.707 18.3477V18.0742H212.762V18.8945L212.57 18.3477H212.707ZM210.52 18.3203L210.328 17.7734H210.52V18.3203ZM211.066 18.6211L210.902 18.0742H211.066V18.6211ZM216.262 14.9297H216.098V14.3555L216.262 14.9297ZM211.285 7.27344V7.02734H212.707V6.72656H217.027V7.02734H217.574V7.27344H218.148V7.57422H218.449V7.875H218.723V8.14844H219.051V8.69531H219.297V12.9336H219.051V17.7734H219.762V17.5273H220.992V17.7734H221.266V18.0742H221.566V20.0156H221.266V20.3164H220.117V20.5898H219.297V20.8906H216.973V20.5898H216.672V20.3164H216.098V20.0156H215.879V20.3164H215.059V20.5898H213.883V20.8906H209.617V20.5898H209.016V20.3164H208.469V20.0156H207.895V19.7695H207.594V19.1953H207.348V18.6211H207.047V15.5312H207.348V14.9844H207.594V14.3828H207.895V14.082H208.168V13.8086H208.715V13.5078H209.316V13.2617H209.863V12.9609H210.711V12.6875H211.859V12.3867H213.555V12.1133H214.211V12.3867H215.25V12.1133H216.098V11.8125H216.398V11.5391H216.672V10.3906H216.398V10.1172H216.098V9.81641H215.824V9.51562H215.25V9.24219H213.336V9.51562H212.762V9.81641H212.215V10.1172H211.941V10.3906H211.613V11.2383H211.367V11.5117H211.066V11.8125H209.316V11.5117H209.016V11.2383H208.715V8.69531H209.016V8.14844H209.617V7.875H210.164V7.57422H210.711V7.27344H211.285Z" fill="white"/>
<path d="M186.102 1.25781V0.957031H186.703V0.683594H189.984V0.957031H190.832V1.25781H191.105V1.55859H191.406V2.10547H191.68V2.70703H192.008V3.28125H192.281V4.15625H192.582V4.73047H192.855V5.30469H193.156V5.87891H193.43V6.48047H193.758V7.05469H194.004V7.62891H194.305V8.23047H194.605V9.07812H194.852V9.37891H195.18V9.95312H195.672V9.37891H196V9.07812H196.246V8.23047H196.574V7.62891H196.848V6.75391H197.148V6.17969H197.422V5.63281H197.723V5.03125H197.996V4.15625H198.324V3.28125H198.57V2.40625H198.844V2.10547H199.172V1.55859H199.445V0.957031H204.449V1.25781H205.051V3.85547H204.367V3.52734H204.148V3.85547H203.574V4.10156H202.453V10.2266H202.125V11.6758H202.453V15.1484H202.125V15.4492H202.453V17.1992H202.699V17.5273H203.574V17.7734H204.449V18.0742H204.75V18.375H205.051V20.3438H204.75V20.6719H203.574V20.9453H202.344V20.6719H197.996V20.3438H197.723V20.0977H197.422V18.6758H197.723V18.0742H197.996V17.7734H198.844V17.5273H199.445V17.1992H199.773V11.4023H200.02V8.47656H199.773V7.02734H199.527V7.30078H199.227V7.90234H198.926V8.47656H198.68V9.05078H198.379V9.37891H198.078V10.2266H197.777V11.1016H197.504V11.375H197.203V11.9766H196.93V12.5508H196.602V13.125H196.355V13.3984H196.055V13.9727H195.754V14.3008H194.797V13.9727H194.496V13.6992H194.25V13.3984H193.949V12.8242H193.648V12.5508H193.375V11.6484H193.074V11.1016H192.801V10.5273H192.473V9.92578H192.227V9.37891H191.926V8.77734H191.625V8.17578H191.324V7.60156H191.051V7.02734H190.531V10.2266H190.23V12.5781H190.531V16.0508H190.832V16.9258H191.105V17.1992H191.406V17.5273H192.582V17.7734H193.156V18.6758H193.43V20.0977H193.156V20.3438H192.855V20.6719H186.703V20.3438H186.402V18.0742H186.703V17.7734H186.977V17.5273H187.551V17.1992H187.879V16.9258H188.152V12.25H188.453V4.10156H188.152V3.85547H187.551V3.52734H186.102V2.67969H185.801V1.25781H186.102Z" fill="white"/>
<path d="M167.152 7.05469V6.75391H168.273V6.50781H169.477V6.75391H170.598V7.05469H171.172V7.32812H171.445V7.62891H171.746V10.1445H171.445V10.418H171.172V10.7188H168.273V10.418H166.359V10.7188H165.785V10.9922H165.238V11.293H164.938V11.5664H164.664V11.8672H164.363V12.1133H164.062V12.4141H163.762V12.7148H163.516V17.5547H163.762V17.8281H164.062V18.1289H168.328V18.4023H168.602V18.9492H168.902V20.3711H168.602V20.6445H168.328V20.9453H158.895V20.6445H158.648V20.3711H158.348V18.4023H158.648V18.1289H160.043V17.8281H160.617V17.5547H160.891V16.9805H161.191V13.5352H160.891V10.418H160.617V10.1445H160.043V9.84375H159.523V10.1445H158.129V10.418H157.527V9.84375H157.227V7.62891H157.527V7.32812H159.195V7.05469H160.891V6.75391H162.695V7.32812H162.941V7.62891H163.242V8.47656H163.516V9.05078H163.734V8.75H164.309V8.47656H164.582V8.17578H164.883V7.90234H165.43V7.62891H166.004V7.32812H166.578V7.05469H167.152Z" fill="white"/>
<path d="M151.758 11.8125V11.5117H151.457V11.2383H151.184V10.9375H150.883V10.3906H150.336V10.1172H150.062V9.81641H149.16V9.51562H147.301V9.81641H146.727V10.1172H146.426V10.3906H146.152V10.6914H145.852V10.9375H145.605V11.2383H145.277V11.5117H145.004V12.0859H144.703V12.3867H148.914V12.1133H151.457V11.8125H151.758ZM151.758 12.0859V11.2656H152.195L152.059 11.6758L152.195 12.0859H151.758ZM150.227 9.81641H150.062V9.24219L150.227 9.81641ZM149.352 9.51562H149.16V8.96875L149.352 9.51562ZM151.375 10.9375H151.184V10.3906L151.375 10.9375ZM150.5 10.1172H150.336V9.54297L150.5 10.1172ZM151.648 11.2383H151.457V10.6914L151.648 11.2383ZM145.797 7.27344V7.02734H146.371V6.72656H150.691V7.02734H151.238V7.27344H151.812V7.57422H152.113V7.875H152.66V8.14844H152.961V8.42188H153.207V8.69531H153.508V9.26953H153.781V9.57031H154.082V10.1445H154.355V10.9648H154.656V14.3555H154.355V14.6289H153.508V14.9297H146.152V15.2031H144.703V15.8047H145.004V16.3516H145.277V16.625H145.605V16.9531H145.852V17.2266H146.426V17.5273H147V17.7734H148.148V18.0742H150.062V17.7734H151.758V17.5273H152.605V17.2266H153.426V16.9531H154.93V17.2266H155.23V19.1953H154.93V19.4688H154.656V19.7695H154.082V20.0156H153.508V20.3164H152.387V20.5898H151.238V20.8906H149.816V21.1641H146.645V20.8906H145.496V20.5898H144.648V20.3164H144.102V20.0156H143.801V19.7695H143.527V19.4688H142.98V19.1953H142.68V18.6211H142.379V18.3203H142.105V17.7461H141.805V16.3242H141.559V12.6875H141.805V11.2656H142.105V10.7188H142.379V10.1445H142.68V9.57031H142.98V9.26953H143.281V8.99609H143.527V8.42188H143.801V8.14844H144.102V7.875H144.648V7.57422H145.25V7.27344H145.797Z" fill="white"/>
<path d="M125.754 1.14844V0.847656H126.875V0.601562H128.051V0.847656H128.652V5.38672H128.352V12.7695H128.652V13.0703H128.844V12.7695H129.145V12.4688H129.418V12.2227H129.719V11.9492H130.293V11.6484H130.566V11.375H130.84V11.0742H131.141V10.8008H131.387V10.5H131.688V10.2266H131.961V9.92578H132.262V9.625H131.961V7.68359H132.262V7.38281H137.73V7.68359H138.031V7.95703H138.277V9.625H138.031V9.89844H137.129V10.1992H136.555V10.4727H136.008V10.8008H135.434V11.0469H134.887V11.3477H134.586V11.6211H134.34V11.9219H133.766V12.168H133.465V12.4688H133.191V12.7422H132.863V13.3711H133.191V13.918H133.465V14.1914H133.766V14.4922H134.039V15.0664H134.34V15.3398H134.586V15.6406H134.887V15.9141H135.16V16.2148H135.434V16.4609H135.734V16.7344H136.008V17.3086H136.309V17.6094H136.855V17.8828H137.129V18.1836H137.676V17.8828H139.672V18.457H140V19.8789H139.672V20.4258H139.152V20.6992H138.852V21H138.031V21.2734H135.953V21H135.379V20.6992H135.078V20.4258H134.805V20.125H134.531V19.8789H134.23V19.5508H133.984V19.2773H133.684V18.9766H133.41V18.7305H133.109V18.4297H132.836V17.8555H132.535V17.582H132.262V17.0078H131.961V16.7344H131.688V16.1875H131.387V15.8867H131.141V15.6133H130.84V15.0117H130.074V15.3125H129.773V15.6133H129.5V15.8867H129.199V16.1875H128.953V16.4336H128.652V16.7344H128.352V17.6094H128.652V18.1836H128.953V18.457H130.074V18.7578H130.648V19.0039H130.922V20.6992H130.648V21H126.684V21.2734H125.152V21H124.906V20.6992H124.605V19.0039H124.906V18.457H125.453V18.1836H125.754V13.3711H126.055V13.0703H125.754V9.92578H126.055V6.53516H125.754V4.23828H123.785V3.99219H123.484V3.39062H123.184V1.99609H123.484V1.72266H123.785V1.42188H125.152V1.14844H125.754Z" fill="white"/>
<path d="M115.637 16.9531V16.3516H115.938V15.2031H115.637V14.9297H112.055V15.2031H111.152V15.5039H110.605V15.7773H110.059V16.0781H109.758V16.3242H109.512V16.9258H109.211V16.9531H109.512V17.5273H110.059V17.7734H110.605V18.0742H113.668V17.7734H114.242V17.5273H114.789V17.2266H115.363V16.9531H115.637ZM112.246 18.3477V18.0742H112.301V18.8945L112.109 18.3477H112.246ZM110.059 18.3203L109.867 17.7734H110.059V18.3203ZM110.605 18.6211L110.441 18.0742H110.605V18.6211ZM115.801 14.9297H115.637V14.3555L115.801 14.9297ZM110.824 7.27344V7.02734H112.246V6.72656H116.566V7.02734H117.113V7.27344H117.688V7.57422H117.988V7.875H118.262V8.14844H118.59V8.69531H118.836V12.9336H118.59V17.7734H119.301V17.5273H120.531V17.7734H120.805V18.0742H121.105V20.0156H120.805V20.3164H119.656V20.5898H118.836V20.8906H116.512V20.5898H116.211V20.3164H115.637V20.0156H115.418V20.3164H114.598V20.5898H113.422V20.8906H109.156V20.5898H108.555V20.3164H108.008V20.0156H107.434V19.7695H107.133V19.1953H106.887V18.6211H106.586V15.5312H106.887V14.9844H107.133V14.3828H107.434V14.082H107.707V13.8086H108.254V13.5078H108.855V13.2617H109.402V12.9609H110.25V12.6875H111.398V12.3867H113.094V12.1133H113.75V12.3867H114.789V12.1133H115.637V11.8125H115.938V11.5391H116.211V10.3906H115.938V10.1172H115.637V9.81641H115.363V9.51562H114.789V9.24219H112.875V9.51562H112.301V9.81641H111.754V10.1172H111.48V10.3906H111.152V11.2383H110.906V11.5117H110.605V11.8125H108.855V11.5117H108.555V11.2383H108.254V8.69531H108.555V8.14844H109.156V7.875H109.703V7.57422H110.25V7.27344H110.824Z" fill="white"/>
<path d="M91.1367 7.38281V7.13672H92.5586V6.83594H93.2148V7.13672H94.3086V7.38281H94.8828V7.68359H95.457V7.95703H95.9492V7.68359H96.5508V7.38281H97.6719V7.13672H100.57V7.38281H101.145V7.68359H101.418V7.95703H101.719V8.53125H101.965V8.80469H102.266V9.67969H102.539V15.8867H102.266V17.8828H102.539V18.1836H103.113V18.457H103.961V19.0039H104.262V20.4258H103.961V21H99.3398V20.6992H99.0938V20.4258H98.793V19.0039H99.0938V18.7578H99.3398V18.457H99.6406V17.6094H99.9141V11.0469H99.6406V10.4727H99.0938V9.89844H97.1523V10.1992H96.9062V10.4727H96.6055V10.8008H96.3047V17.8828H96.6055V18.1836H96.9062V18.457H97.7266V19.0039H98.0273V20.4258H97.7266V21H93.4062V20.6992H93.1055V18.7578H93.4062V18.457H93.6797V18.1836H93.9531V16.4609H94.2539V11.9219H93.9531V11.0469H93.6797V10.8008H93.4062V10.1992H93.1055V9.89844H91.4922V10.1992H91.1914V10.4727H90.6172V10.8008H90.3711V11.0469H90.0703V17.8828H90.3711V18.1836H90.6172V18.457H91.7656V18.7578H92.0664V19.0039H92.3398V20.4258H92.0664V20.6992H91.7656V21H87.4727V20.6992H86.8984V18.457H87.1719V18.1836H87.4727V17.8828H87.7461V10.8008H87.4727V10.4727H85.75V9.89844H85.4492V8.20312H85.75V7.68359H86.5703V7.38281H88.0469V7.13672H89.5234V7.38281H91.1367Z" fill="white"/>
<path d="M69.2344 1.20312V0.929688H70.3281V0.628906H71.5586V0.929688H71.832V1.20312H72.1328V3.74609H71.832V7.4375H71.5586V7.73828H71.832V8.3125H72.9258V8.01172H73.1719V7.73828H73.9922V7.46484H74.5938V7.16406H78.0938V7.46484H78.9141V7.73828H79.1875V8.01172H79.4883V8.3125H79.7617V8.55859H80.0625V8.85938H80.3359V9.46094H80.6367V10.2812H80.8828V11.4297H81.1836V14.2461H80.8828V18.5391H82.6055V18.7852H83.1797V20.7812H82.8789V21.0547H82.6055V21.3555H77.7383V21.0547H77.1641V18.7852H77.7383V18.5391H77.9844V18.2383H78.2578V15.0938H78.5586V12.8242H78.2578V11.9766H77.9844V11.4023H77.7383V11.1289H77.4375V10.8008H77.1641V10.5547H76.5898V10.2539H74.6484V10.5547H73.8281V10.8008H72.9805V11.1289H72.3789V11.4023H72.1328V11.7031H71.832V11.9766H71.5586V17.3906H71.832V18.2383H72.3789V18.5391H73.8281V18.7852H74.3477V20.7812H74.1016V21.0547H71.2578V21.3555H68.6602V21.0547H68.1133V18.5391H68.6602V18.2383H68.9336V17.9375H69.2344V4.86719H68.9336V4.59375H68.3594V4.32031H67.2109V4.01953H66.9375V3.74609H66.6367V2.05078H66.9375V1.75H67.5117V1.50391H68.6602V1.20312H69.2344Z" fill="white"/>
<path d="M56.7109 7.27344V7.02734H57.5859V6.72656H61.6328V7.02734H62.4531V7.27344H63V7.57422H63.3008V7.875H63.6016V8.14844H63.8477V8.42188H64.1484V8.99609H64.4219V10.418H64.7227V12.0859H64.4219V12.6602H64.1484V12.9336H62.3984V12.6602H61.8242V12.0859H61.5234V10.3906H61.2773V10.1172H60.9766V9.81641H60.1016V9.51562H58.1875V9.81641H57.6406V10.1172H57.0664V10.3906H56.793V10.6914H56.4648V10.9375H56.2188V11.2383H55.918V11.5117H55.6445V12.0859H55.3438V12.9336H55.0977V14.9844H55.3438V15.8047H55.6445V16.0508H55.918V16.625H56.2188V16.9531H56.4648V17.2266H57.0664V17.5273H57.6406V17.7734H59.0625V18.0742H60.375V17.7734H62.0977V17.5273H62.6445V17.2266H63.4922V16.9531H65.2969V17.2266H65.543V19.1953H65.2969V19.4688H64.9961V19.7695H64.4219V20.0156H63.6016V20.3164H63V20.5898H61.6328V20.8906H60.7305V21.1641H57.0117V20.8906H55.8633V20.5898H54.9883V20.3164H54.7422V20.0156H54.4688V19.7695H54.168V19.4688H53.8945V19.1953H53.5938V18.8945H53.3203V18.3203H53.0195V17.7461H52.7461V16.9258H52.4453V16.0781H52.1992V12.9609H52.4453V11.2656H52.7461V10.7188H53.0195V10.1445H53.3203V9.57031H53.5938V9.26953H53.8945V8.99609H54.168V8.69531H54.4688V8.42188H54.7422V8.14844H54.9883V7.875H55.5625V7.57422H55.8633V7.27344H56.7109Z" fill="white"/>
<path d="M39.9492 6.50781V4.21094H40.5508V3.91016H42.0273V4.21094H42.3008V4.78516H42.6016V6.17969H42.3008V6.75391H42.6016V7.05469H43.75V7.32812H43.9414V7.05469H48.4531V6.75391H49.1094V7.05469H49.3828V7.32812H49.6836V9.57031H49.1094V9.84375H42.0273V12.1133H41.7539V17.5547H42.0273V17.8281H42.3008V18.1289H42.6016V18.4023H45.0898V18.1289H47.0859V17.8281H47.9062V17.5547H49.6836V17.8281H50.2852V19.7969H49.9844V20.0703H49.3828V20.3711H48.8086V20.6445H47.9883V20.9453H46.5391V21.1914H43.9961V21.4922H42.2461V21.1914H41.3984V20.9453H40.8516V20.6445H40.2773V20.0703H39.9492V19.7969H39.7031V19.2227H39.4023V11.5938H39.7031V10.1445H39.1289V9.84375H37.6797V9.57031H37.4062V7.62891H37.6797V7.32812H39.4023V7.05469H39.7031V6.50781H39.9492Z" fill="white"/>
<path d="M30.9805 16.9531V16.3516H31.2812V15.2031H30.9805V14.9297H27.3984V15.2031H26.4961V15.5039H25.9492V15.7773H25.4023V16.0781H25.1016V16.3242H24.8555V16.9258H24.5547V16.9531H24.8555V17.5273H25.4023V17.7734H25.9492V18.0742H29.0117V17.7734H29.5859V17.5273H30.1328V17.2266H30.707V16.9531H30.9805ZM27.5898 18.3477V18.0742H27.6445V18.8945L27.4531 18.3477H27.5898ZM25.4023 18.3203L25.2109 17.7734H25.4023V18.3203ZM25.9492 18.6211L25.7852 18.0742H25.9492V18.6211ZM31.1445 14.9297H30.9805V14.3555L31.1445 14.9297ZM26.168 7.27344V7.02734H27.5898V6.72656H31.9102V7.02734H32.457V7.27344H33.0312V7.57422H33.332V7.875H33.6055V8.14844H33.9336V8.69531H34.1797V12.9336H33.9336V17.7734H34.6445V17.5273H35.875V17.7734H36.1484V18.0742H36.4492V20.0156H36.1484V20.3164H35V20.5898H34.1797V20.8906H31.8555V20.5898H31.5547V20.3164H30.9805V20.0156H30.7617V20.3164H29.9414V20.5898H28.7656V20.8906H24.5V20.5898H23.8984V20.3164H23.3516V20.0156H22.7773V19.7695H22.4766V19.1953H22.2305V18.6211H21.9297V15.5312H22.2305V14.9844H22.4766V14.3828H22.7773V14.082H23.0508V13.8086H23.5977V13.5078H24.1992V13.2617H24.7461V12.9609H25.5938V12.6875H26.7422V12.3867H28.4375V12.1133H29.0938V12.3867H30.1328V12.1133H30.9805V11.8125H31.2812V11.5391H31.5547V10.3906H31.2812V10.1172H30.9805V9.81641H30.707V9.51562H30.1328V9.24219H28.2188V9.51562H27.6445V9.81641H27.0977V10.1172H26.8242V10.3906H26.4961V11.2383H26.25V11.5117H25.9492V11.8125H24.1992V11.5117H23.8984V11.2383H23.5977V8.69531H23.8984V8.14844H24.5V7.875H25.0469V7.57422H25.5938V7.27344H26.168Z" fill="white"/>
<path d="M0.984375 1.25781V0.957031H1.58594V0.683594H4.86719V0.957031H5.71484V1.25781H5.98828V1.55859H6.28906V2.10547H6.5625V2.70703H6.89062V3.28125H7.16406V4.15625H7.46484V4.73047H7.73828V5.30469H8.03906V5.87891H8.3125V6.48047H8.64062V7.05469H8.88672V7.62891H9.1875V8.23047H9.48828V9.07812H9.73438V9.37891H10.0625V9.95312H10.5547V9.37891H10.8828V9.07812H11.1289V8.23047H11.457V7.62891H11.7305V6.75391H12.0312V6.17969H12.3047V5.63281H12.6055V5.03125H12.8789V4.15625H13.207V3.28125H13.4531V2.40625H13.7266V2.10547H14.0547V1.55859H14.3281V0.957031H19.332V1.25781H19.9336V3.85547H19.25V3.52734H19.0312V3.85547H18.457V4.10156H17.3359V10.2266H17.0078V11.6758H17.3359V15.1484H17.0078V15.4492H17.3359V17.1992H17.582V17.5273H18.457V17.7734H19.332V18.0742H19.6328V18.375H19.9336V20.3438H19.6328V20.6719H18.457V20.9453H17.2266V20.6719H12.8789V20.3438H12.6055V20.0977H12.3047V18.6758H12.6055V18.0742H12.8789V17.7734H13.7266V17.5273H14.3281V17.1992H14.6562V11.4023H14.9023V8.47656H14.6562V7.02734H14.4102V7.30078H14.1094V7.90234H13.8086V8.47656H13.5625V9.05078H13.2617V9.37891H12.9609V10.2266H12.6602V11.1016H12.3867V11.375H12.0859V11.9766H11.8125V12.5508H11.4844V13.125H11.2383V13.3984H10.9375V13.9727H10.6367V14.3008H9.67969V13.9727H9.37891V13.6992H9.13281V13.3984H8.83203V12.8242H8.53125V12.5508H8.25781V11.6484H7.95703V11.1016H7.68359V10.5273H7.35547V9.92578H7.10938V9.37891H6.80859V8.77734H6.50781V8.17578H6.20703V7.60156H5.93359V7.02734H5.41406V10.2266H5.11328V12.5781H5.41406V16.0508H5.71484V16.9258H5.98828V17.1992H6.28906V17.5273H7.46484V17.7734H8.03906V18.6758H8.3125V20.0977H8.03906V20.3438H7.73828V20.6719H1.58594V20.3438H1.28516V18.0742H1.58594V17.7734H1.85938V17.5273H2.43359V17.1992H2.76172V16.9258H3.03516V12.25H3.33594V4.10156H3.03516V3.85547H2.43359V3.52734H0.984375V2.67969H0.683594V1.25781H0.984375Z" fill="white"/>
</svg>
